<?xml version="1.0" encoding="UTF-8"?>
<svg width="890px" height="992px" viewBox="0 0 890 992" version="1.1" xmlns="http://www.w3.org/2000/svg" xmlns:xlink="http://www.w3.org/1999/xlink">
    <!-- Generator: Sketch 50.2 (55047) - http://www.bohemiancoding.com/sketch -->
    <title>logo</title>
    <desc>Created with Sketch.</desc>
    <defs></defs>
    <g id="Page-1" stroke="none" stroke-width="1" fill="none" fill-rule="evenodd" opacity="0.049999997">
        <path d="M890,469.261056 C848.66247,391.771682 728.511703,344.296518 563.744379,352.751128 C318.941707,365.303136 68.3518435,496.583287 4.03391574,645.950712 C2.58245582,649.320344 1.23824769,652.670433 0,656 L1.58095759e-11,312.671039 C1.58095759e-11,262.971746 26.8322417,217.047705 70.3892794,192.198059 L374.610721,18.637235 C418.167758,-6.21241167 471.832242,-6.21241167 515.389279,18.637235 L819.610721,192.198059 C863.167758,217.047705 890,262.971746 890,312.671039 L890,469.261056 Z M91.8146446,886 C66.1352811,849.395768 64.0395047,846.403752 50.0351153,819.95532 C30.9360015,783.489673 29.3842203,740.077004 49.1214823,692.648921 C109.037672,548.623475 342.477872,422.03843 570.52694,409.935332 C755.98746,400.08513 880.768104,468.969028 888.67347,572.506306 C889.151209,584.950537 890.075304,601.530999 889.995099,613.97523 C889.402284,625.317887 888.994288,640.466304 887.930707,651.773426 C898.964046,538.815915 774.162479,460.845809 581.37546,471.079785 C361.430526,482.756468 136.279278,604.839274 78.4937363,743.747732 C55.8133208,798.261422 62.2819817,847.27435 91.8146446,886 Z M247.288273,940 L242.941772,937.97535 C210.486535,921.305196 204.643362,918.302236 177.611,900.035038 C128.422419,865.619236 110.971493,814.912294 137.067581,756.553796 C188.282478,642.023422 387.808037,541.370806 582.730815,531.743192 C775.165973,522.238678 891.161496,604.990153 844.809076,717.301511 L839.915845,728.733492 C822.611853,763.849013 821.56965,765.951409 807.928746,786.998046 C813.355037,778.824941 817.968068,770.538455 821.716583,762.164505 C868.127094,658.369632 762.54677,581.296894 585.877927,590.023944 C409.222752,598.754232 228.381679,689.973602 181.964334,793.774953 C153.807759,856.75613 181.605543,909.899131 247.288273,940 Z M460.982127,989.711761 C573.483225,983.388328 688.633247,917.296983 718.196816,842.096883 C747.760386,766.893198 680.520298,711.064885 568.022523,717.388318 C455.521425,723.711751 340.364756,789.803096 310.80451,865.003196 C281.247588,940.203296 348.484352,996.038779 460.982127,989.711761 C457.715012,990.633032 454.424631,991.185078 451.120956,991.371483 C423.468466,992.185213 422.384967,992.22106 407.023211,991.40733 C399.658077,990.776421 389.820172,990.124003 382.478302,989.278011 C280.636042,977.366011 225.736543,916.124782 256.546469,837.741457 C292.820421,745.460202 434.123981,664.359665 572.17372,656.598762 C710.220136,648.841444 792.725595,717.363225 756.451643,809.640895 C744.968548,838.849133 722.956235,866.942526 693.867943,891.942311 C684.76788,899.362666 672.503735,909.084406 663.111195,916.056672 C640.533867,931.338302 640.533867,931.338302 628.316252,938.371508 C606.161024,950.423312 606.161024,950.423312 594.691223,955.6785 C573.074421,965.009507 573.074421,965.009507 561.318789,969.21079 C550.277734,972.852858 529.731136,979.617211 527.168628,979.617211 C503.926577,985.008618 503.015906,985.216532 490.974443,987.10926 C465.871167,990.453797 464.8907,990.590016 451.117633,991.371483 C454.424631,991.185078 457.711688,990.633032 460.982127,989.711761 Z M515.69839,914.96764 C556.954086,912.947158 599.200096,891.821742 610.038519,867.779383 C620.876942,843.737025 596.218154,825.89403 554.955122,827.914513 C513.692089,829.938443 471.449748,851.063859 460.611324,875.106217 C449.772901,899.141679 474.431689,916.99157 515.69839,914.96764 C509.202671,924.414946 502.468545,932.314134 495.551026,938.713477 C419.986494,942.419993 374.824563,909.733695 394.678501,865.707183 C414.536106,821.68067 491.883201,782.988092 567.447734,779.285025 C643.012267,775.588852 688.177865,808.271702 668.32026,852.298215 C648.46999,896.324727 571.115559,935.013857 495.551026,938.713477 C502.468545,932.314134 509.206339,924.414946 515.69839,914.96764 Z" id="logo" fill="#FFFFFF"></path>
    </g>
</svg>