<?xml version="1.0" encoding="UTF-8"?>
<svg width="10px" height="16px" viewBox="0 0 10 16" version="1.1" xmlns="http://www.w3.org/2000/svg" xmlns:xlink="http://www.w3.org/1999/xlink">
    <!-- Generator: Sketch 51.1 (57501) - http://www.bohemiancoding.com/sketch -->
    <title>noun_668560_cc</title>
    <desc>Created with Sketch.</desc>
    <defs></defs>
    <g id="Page-1" stroke="none" stroke-width="1" fill="none" fill-rule="evenodd" opacity="0.539999962">
        <g id="contact-us" transform="translate(-750.000000, -493.000000)" fill="#1A1A1A" fill-rule="nonzero">
            <g id="Group-2" transform="translate(743.000000, 264.000000)">
                <g id="Group" transform="translate(0.000000, 225.000000)">
                    <g id="Group-8">
                        <g id="noun_668560_cc" transform="translate(7.200000, 4.800000)">
                            <path d="M6.09234632,11.7818182 C5.98972717,11.948252 5.89584156,12.1228237 5.80894279,12.3050083 C6.86482838,12.4202518 7.61562213,12.7095421 7.61562213,13.049235 C7.61562213,13.4898645 6.35508047,13.8471458 4.80007278,13.8471458 C3.24550177,13.8471458 1.98466899,13.4898645 1.98466899,13.049235 C1.98466899,12.7095421 2.73531718,12.4202518 3.79149389,12.3050083 C3.70474068,12.1226924 3.61070951,11.9481207 3.50838147,11.7818182 C2.35948363,11.9361763 1.37142857,12.3204966 1.37142857,13.049235 C1.37142857,14.0462626 3.21857334,14.4 4.80007278,14.4 C6.38186334,14.4 8.22857143,14.0462626 8.22857143,13.049235 C8.22857143,12.3202341 7.24095305,11.9363076 6.09234632,11.7818182 Z" id="Shape" opacity="0.800000012"></path>
                            <path d="M4.80016133,0 C2.14880344,0 0,2.06980722 0,4.62334641 C0,8.68619772 3.7661737,9.12595406 4.80016133,13.0909091 C5.83398763,9.12548789 9.6,8.68573155 9.6,4.62334641 C9.60016133,2.06980722 7.45151923,0 4.80016133,0 Z M4.80016133,7.54065577 C3.12729228,7.54065577 1.7712826,6.2342842 1.7712826,4.62303563 C1.7712826,3.01209783 3.12729228,1.70588165 4.80016133,1.70588165 C6.47303038,1.70588165 7.82887873,3.01209783 7.82887873,4.62303563 C7.82887873,6.2342842 6.47303038,7.54065577 4.80016133,7.54065577 Z" id="Shape"></path>
                        </g>
                    </g>
                </g>
            </g>
        </g>
    </g>
</svg>