<?xml version="1.0" encoding="UTF-8"?>
<svg width="360px" height="374px" viewBox="0 0 360 374" version="1.1" xmlns="http://www.w3.org/2000/svg" xmlns:xlink="http://www.w3.org/1999/xlink">
    <!-- Generator: Sketch 51.1 (57501) - http://www.bohemiancoding.com/sketch -->
    <title>Group 2</title>
    <desc>Created with Sketch.</desc>
    <defs>
        <path d="M8.62986848e-09,63.3988575 C0.421295452,53.6013643 5.88050201,44.6545146 14.5279919,39.7234047 L77.4325272,3.85212848 C86.4388569,-1.28404283 97.5347602,-1.28404283 106.54109,3.85212848 L169.445625,39.7234047 C178.451955,44.8591379 183.999906,54.3508035 183.999906,64.622708 L183.999906,96.9866329 C175.452328,80.9713639 150.608791,71.1590161 116.539846,72.9065585 C65.9216886,75.5009296 14.1069224,102.633618 0.80796264,133.504969 C0.51807282,134.177748 0.248620344,134.846441 0,135.511442 L8.62987016e-09,63.3988575 Z M89.5279685,205 L86.1766348,205 C85.5973234,204.979778 84.9672896,204.947741 84.1341478,204.90362 C82.6115501,204.773507 80.5771844,204.638575 79.0589682,204.463777 C58.0011135,202.00171 46.6493262,189.344403 53.0201378,173.14426 C60.5205198,154.071558 89.7377455,137.309783 118.282837,135.705496 C146.826615,134.102524 163.886281,148.264233 156.385899,167.336496 C154.011523,173.372943 149.459942,179.179393 143.445353,184.34623 C141.563904,185.879985 139.027848,187.889505 137.085933,189.330384 C132.417364,192.488578 132.417364,192.488578 129.891385,193.942161 C125.310009,196.433143 125.310009,196.433143 122.9387,197.519169 C118.469054,199.448081 118.469054,199.448081 116.038156,200.316376 C113.755355,201.069015 109.506541,202.466962 108.976808,202.466962 C104.171095,203.581463 103.982688,203.624396 101.493076,204.015611 C96.3022228,204.706918 96.099794,204.734955 93.2517695,204.896173 C93.9357336,204.858059 94.615316,204.743717 95.2913932,204.553148 C118.553619,203.246324 142.363103,189.586667 148.47584,174.044536 C154.589015,158.50109 140.685398,146.962666 117.424487,148.26949 C94.162261,149.576751 70.3514621,163.236409 64.2391634,178.77854 C58.1277411,194.32111 72.0300439,205.860848 95.2913932,204.553148 C94.6157542,204.743717 93.9357336,204.858059 93.2526458,204.896173 C91.635204,204.943759 90.4573735,204.97848 89.5279684,205 Z M18.9582034,183.118263 C13.6486095,175.552881 13.2152717,174.934297 10.319488,169.468244 C6.37037349,161.931337 6.04964212,152.958809 10.1306421,143.156537 C22.5195485,113.389174 70.7883052,87.226856 117.941951,84.7253601 C156.289943,82.6895542 182.090854,96.9261764 183.72562,118.325576 C183.824205,120.897604 184.015242,124.324347 183.99903,126.896376 C183.876346,129.240597 183.791782,132.371191 183.571826,134.708403 C185.853313,111.36213 160.048021,95.2474142 120.185318,97.3625144 C74.7071869,99.7759542 28.1525027,125.008206 16.2039447,153.717581 C11.5143438,164.984389 12.8516008,175.114352 18.9582034,183.118263 Z M51.1058272,194.279053 L50.207166,193.860677 C43.496344,190.415096 42.2879054,189.794322 36.6983287,186.018859 C26.5278143,178.906024 22.9195864,168.426027 28.3154974,156.364523 C38.9048905,132.693187 80.1609346,111.890467 120.465739,109.90066 C160.255707,107.936263 184.240017,125.039311 174.655757,148.251528 L173.644051,150.614587 C170.066056,157.871992 169.850483,158.306578 167.030062,162.656377 C168.151746,160.967539 169.105615,159.254605 169.880716,157.524148 C179.477244,136.07174 157.646479,120.142337 121.116403,121.945955 C84.5889554,123.750449 47.1965851,142.603667 37.5987426,164.05739 C31.7765043,177.07393 37.5242558,188.057732 51.1058272,194.279053 Z M106.605061,189.105206 C115.135551,188.687706 123.8711,184.321259 126.111838,179.352438 C128.353014,174.383179 123.254174,170.695335 114.722369,171.113273 C106.190126,171.531649 97.4558918,175.897658 95.2147156,180.866917 C92.9735394,185.834423 98.0723795,189.523582 106.605061,189.105206 C105.262108,191.057775 103.869643,192.690537 102.439058,194.013132 C86.8147961,194.778914 77.476343,188.023561 81.5818798,178.923986 C85.6878547,169.824849 101.681046,161.827948 117.305308,161.062604 C132.930008,160.298575 142.268899,167.05349 138.162924,176.152626 C134.058702,185.252201 118.063759,193.248226 102.439058,194.013132 C103.869643,192.690537 105.262984,191.057775 106.605061,189.105206 Z" id="path-1"></path>
        <path d="M24.7401382,48.2299655 C11.0892794,48.2299655 0.112300099,38.7202759 0.112300099,24.2127931 C0.112300099,9.63589655 11.0892794,0.265034483 24.7401382,0.265034483 C33.8876209,0.265034483 39.8686673,4.56868966 43.5980257,9.84413793 L36.9133268,13.6618966 C34.3801777,10.1912069 29.9471668,7.48406897 24.7401382,7.48406897 C15.451925,7.48406897 8.55613031,14.4254483 8.55613031,24.2127931 C8.55613031,33.8613103 15.451925,40.9415172 24.7401382,40.9415172 C29.5249753,40.9415172 33.7468904,38.7896897 35.857848,36.7766897 L35.857848,29.627069 L21.7847976,29.627069 L21.7847976,22.4774483 L44.0202172,22.4774483 L44.0202172,39.7614828 C39.4464758,44.8286897 32.8321422,48.2299655 24.7401382,48.2299655 Z M52.3936821,47.3275862 L52.3936821,1.02858621 L59.7820336,1.02858621 L59.7820336,47.3275862 L52.3936821,47.3275862 Z M84.7616979,48.1605517 C73.9254492,48.1605517 67.3111155,40.1085517 67.3111155,30.5294483 C67.3111155,20.880931 73.9254492,12.9677586 84.7616979,12.9677586 C95.5979467,12.9677586 102.21228,20.880931 102.21228,30.5294483 C102.21228,40.1085517 95.5979467,48.1605517 84.7616979,48.1605517 Z M84.7616979,41.705069 C91.0945706,41.705069 94.5424679,36.4990345 94.5424679,30.5294483 C94.5424679,24.6292759 91.0945706,19.4232414 84.7616979,19.4232414 C78.4991905,19.4232414 74.9809279,24.6292759 74.9809279,30.5294483 C74.9809279,36.4990345 78.4991905,41.705069 84.7616979,41.705069 Z M117.129714,37.2625862 C118.81848,39.7614828 122.407108,41.705069 125.92537,41.705069 C131.765686,41.705069 135.495044,37.0543448 135.495044,30.5294483 C135.495044,24.0739655 131.765686,19.4232414 125.92537,19.4232414 C122.407108,19.4232414 118.81848,21.4362414 117.129714,23.9351379 L117.129714,37.2625862 Z M117.129714,47.3275862 L109.741362,47.3275862 L109.741362,1.02858621 L117.129714,1.02858621 L117.129714,18.4514483 C119.873959,14.841931 123.814413,12.9677586 128.036328,12.9677586 C136.831984,12.9677586 143.164857,19.7008966 143.164857,30.5294483 C143.164857,41.6356552 136.761619,48.1605517 128.036328,48.1605517 C123.673682,48.1605517 119.733228,46.0781379 117.129714,42.7462759 L117.129714,47.3275862 Z M166.38539,48.1605517 C156.112063,48.1605517 148.582981,41.1497586 148.582981,30.5294483 C148.582981,20.8115172 155.760237,12.9677586 165.822468,12.9677586 C176.025429,12.9677586 182.499033,20.6032759 182.499033,31.1541724 L182.499033,32.958931 L156.323159,32.958931 C156.886081,37.9567241 160.685805,42.1909655 167.089042,42.1909655 C170.466575,42.1909655 174.336663,40.8721034 176.799447,38.4426207 L180.176979,43.2321724 C176.729082,46.4252069 171.733149,48.1605517 166.38539,48.1605517 Z M175.392142,27.7528966 C175.181046,23.7963103 172.436802,18.9373448 165.752103,18.9373448 C159.489595,18.9373448 156.534255,23.7268966 156.252794,27.7528966 L175.392142,27.7528966 Z M206.141757,48.1605517 C197.486831,48.1605517 191.224324,45.1063448 187.002409,40.8026897 L191.646515,34.4860345 C194.812952,37.8873103 199.949615,40.9415172 206.493583,40.9415172 C213.248648,40.9415172 215.852162,37.679069 215.852162,34.5554483 C215.852162,24.8375172 188.550444,30.8765172 188.550444,13.8701379 C188.550444,6.1652069 195.305508,0.265034483 205.6492,0.265034483 C212.896821,0.265034483 218.877868,2.62510345 223.170148,6.78993103 L218.526041,12.828931 C214.796683,9.15 209.80075,7.48406897 204.875183,7.48406897 C200.090346,7.48406897 196.994274,9.84413793 196.994274,13.2454138 C196.994274,21.9221379 224.295992,16.5772759 224.295992,33.7918966 C224.295992,41.4968276 218.737137,48.1605517 206.141757,48.1605517 Z M230.206673,60.4467931 L231.262152,53.9218966 C232.03617,54.2689655 233.232379,54.4772069 234.076762,54.4772069 C236.469181,54.4772069 238.017216,53.783069 239.00233,51.5618276 L240.691096,47.744069 L226.688411,13.8007241 L234.639684,13.8007241 L244.561185,38.9285172 L254.482685,13.8007241 L262.363593,13.8007241 L245.96849,53.3665862 C243.646436,59.0585172 239.635617,60.8632759 234.358223,60.9326897 C233.302744,60.9326897 231.191787,60.7244483 230.206673,60.4467931 Z M297.405489,47.3275862 L290.017137,47.3275862 L290.017137,26.3646207 C290.017137,21.0891724 287.272892,19.4232414 283.121343,19.4232414 C279.391984,19.4232414 276.155183,21.6444828 274.396051,23.8657241 L274.396051,47.3275862 L267.0077,47.3275862 L267.0077,13.8007241 L274.396051,13.8007241 L274.396051,18.3126207 C276.647739,15.6748966 281.08075,12.9677586 286.428509,12.9677586 C293.746496,12.9677586 297.405489,16.854931 297.405489,23.7268966 L297.405489,47.3275862 Z M317.24849,48.1605517 C311.478539,48.1605517 308.523198,45.1063448 308.523198,39.4838276 L308.523198,20.1173793 L302.893978,20.1173793 L302.893978,13.8007241 L308.523198,13.8007241 L308.523198,4.63810345 L315.91155,4.63810345 L315.91155,13.8007241 L322.807345,13.8007241 L322.807345,20.1173793 L315.91155,20.1173793 L315.91155,37.679069 C315.91155,39.9697241 317.037394,41.705069 319.148351,41.705069 C320.555656,41.705069 321.822231,41.0803448 322.385153,40.4556207 L324.144284,46.0087241 C322.807345,47.1887586 320.626022,48.1605517 317.24849,48.1605517 Z M359.819467,47.3275862 L352.431115,47.3275862 L352.431115,26.2257931 C352.431115,20.9503448 349.757236,19.4232414 345.605686,19.4232414 C341.805962,19.4232414 338.569161,21.6444828 336.880395,23.8657241 L336.880395,47.3275862 L329.492043,47.3275862 L329.492043,1.02858621 L336.880395,1.02858621 L336.880395,18.3126207 C339.132083,15.6748966 343.494729,12.9677586 348.842488,12.9677586 C356.160474,12.9677586 359.819467,16.7161034 359.819467,23.588069 L359.819467,47.3275862 Z" id="path-3"></path>
        <path d="M0.281948084,0.36461165 L16.1379679,0.36461165 C19.2725043,0.36461165 21.7990012,1.25620388 23.7181706,3.03902913 C25.6373399,4.82221359 26.5967466,7.32743689 26.5967466,10.5550583 C26.5967466,13.3304175 25.7412905,15.7469126 24.0300222,17.8045437 C22.318754,19.8621748 19.6883066,20.8906311 16.1379679,20.8906311 L5.05548578,20.8906311 L5.05548578,35.9223301 L0.281948084,35.9223301 L0.281948084,0.36461165 Z M18.8965735,5.254 C17.8410482,4.75360194 16.3939283,4.50358252 14.5548578,4.50358252 L5.05548578,4.50358252 L5.05548578,16.8242233 L14.5548578,16.8242233 C16.6975921,16.8242233 18.4369839,16.3644175 19.7723214,15.4444466 C21.1073028,14.524835 21.7751496,12.9029417 21.7751496,10.5791262 C21.7751496,7.96505825 20.8157429,6.1897767 18.8965735,5.254 Z M32.0178393,0.243553398 L36.3357033,0.243553398 L36.3357033,13.508233 C37.3591891,12.2010194 38.2787244,11.2810485 39.094309,10.7486796 C40.4858937,9.82870874 42.2210136,9.36890291 44.2996687,9.36890291 C48.025869,9.36890291 50.5527219,10.6840194 51.8798714,13.3142524 C52.5996934,14.7507864 52.9596044,16.7433981 52.9596044,19.293165 L52.9596044,35.9223301 L48.5217701,35.9223301 L48.5217701,19.5837767 C48.5217701,17.679534 48.2818294,16.2835922 47.8019481,15.3959515 C47.018403,13.9759417 45.5470754,13.2661165 43.3883214,13.2661165 C41.5973103,13.2661165 39.9739728,13.8872136 38.518665,15.129767 C37.0633572,16.3723204 36.3357033,18.7202039 36.3357033,22.1737767 L36.3357033,35.9223301 L32.0178393,35.9223301 L32.0178393,0.243553398 Z M64.0178789,32.0010485 C64.9295822,32.7270388 66.0089592,33.0902136 67.2563659,33.0902136 C68.7753968,33.0902136 70.2467244,32.735301 71.6699926,32.0251165 C74.0690433,30.8472233 75.2683906,28.9189126 75.2683906,26.2401845 L75.2683906,22.7302136 C74.7404499,23.0693204 74.0608554,23.3516699 73.2292509,23.5776214 C72.3976465,23.8035728 71.5820618,23.9648641 70.7824969,24.0614951 L68.1677132,24.4006019 C66.600623,24.6103883 65.4251273,24.941233 64.6415822,25.3927767 C63.3144326,26.1514563 62.6505019,27.3616796 62.6505019,29.0238058 C62.6505019,30.2825243 63.1065315,31.2750583 64.0178789,32.0010485 Z M73.1092806,20.2131359 C74.1007268,20.0838155 74.7646576,19.6642427 75.1003609,18.9544175 C75.2922423,18.5671748 75.3883609,18.0103786 75.3883609,17.2840291 C75.3883609,15.7993592 74.8643362,14.7224078 73.8169988,14.0528155 C72.7696613,13.3828641 71.2702101,13.048068 69.3193572,13.048068 C67.0644845,13.048068 65.4653548,13.6612621 64.5216119,14.8876505 C63.9940272,15.5655049 63.650136,16.5742039 63.4902942,17.9133883 L59.4600742,17.9133883 C59.5401731,14.7184563 60.5675748,12.4955825 62.5426354,11.244767 C64.5176959,9.99431068 66.8085241,9.36890291 69.4151199,9.36890291 C72.4378739,9.36890291 74.8924598,9.94976699 76.7795896,11.1118544 C78.6506996,12.2735825 79.5862546,14.080835 79.5862546,16.5336117 L79.5862546,31.4686796 C79.5862546,31.9202233 79.6781014,32.2833981 79.8617948,32.5578447 C80.0458443,32.831932 80.4335229,32.9691553 81.0255426,32.9691553 C81.217424,32.9691553 81.433157,32.957301 81.6730977,32.9328738 C81.9130383,32.9088058 82.1686428,32.8725243 82.440623,32.8240291 L82.440623,36.0433883 C81.7688603,36.2370097 81.2572954,36.358068 80.9055723,36.4065631 C80.5534932,36.454699 80.0739679,36.4791262 79.4662843,36.4791262 C77.978937,36.4791262 76.89956,35.9463981 76.2277973,34.8816602 C75.8760742,34.3166019 75.6279456,33.5180485 75.4841236,32.4852816 C74.6044598,33.6470097 73.3413894,34.6557087 71.6942002,35.5106602 C70.0470111,36.3659709 68.2317923,36.7938058 66.2488999,36.7938058 C63.865869,36.7938058 61.918932,36.0635049 60.407733,34.6032621 C58.896534,33.1426602 58.1407565,31.3152913 58.1407565,29.1204369 C58.1407565,26.7161553 58.8844302,24.8525049 60.3717775,23.5291262 C61.8591248,22.2057476 63.8099778,21.3910291 66.2246922,21.0842524 L73.1092806,20.2131359 Z M86.7823387,9.99826214 L90.8844697,9.99826214 L90.8844697,14.4763398 C91.2201731,13.6048641 92.0439456,12.5437184 93.3550754,11.2932621 C94.6665612,10.0428058 96.1777602,9.41739806 97.8890284,9.41739806 C97.9687713,9.41739806 98.1047614,9.42530097 98.2966428,9.44146602 C98.4885241,9.45763107 98.8163956,9.48996117 99.2802571,9.53845631 L99.2802571,14.137233 C99.0242967,14.0890971 98.7882719,14.056767 98.5725389,14.0406019 C98.3568059,14.0244369 98.1207812,14.016534 97.8648208,14.016534 C95.690047,14.016534 94.0190062,14.7224078 92.8513424,16.1345146 C91.6840346,17.5462621 91.1002027,19.1721068 91.1002027,21.0116893 L91.1002027,35.9223301 L86.7823387,35.9223301 L86.7823387,9.99826214 Z M103.022477,9.99826214 L107.292282,9.99826214 L107.292282,13.6774272 C108.315768,12.4025437 109.243135,11.4746699 110.074739,10.8938058 C111.498007,9.90953398 113.113157,9.41739806 114.920188,9.41739806 C116.967159,9.41739806 118.614349,9.92569903 119.861755,10.942301 C120.565557,11.523165 121.205281,12.3784757 121.780925,13.508233 C122.740331,12.1201942 123.867768,11.0913786 125.163234,10.4217864 C126.4587,9.75219417 127.913651,9.41739806 129.529157,9.41739806 C132.983377,9.41739806 135.334012,10.6761165 136.581419,13.1935534 C137.253182,14.5489029 137.588885,16.3723204 137.588885,18.6638058 L137.588885,35.9223301 L133.103347,35.9223301 L133.103347,17.9133883 C133.103347,16.1869612 132.675441,15.0008058 131.819985,14.3552816 C130.964173,13.7097573 129.920752,13.3871748 128.689365,13.3871748 C126.994116,13.3871748 125.534892,13.9597767 124.311693,15.105699 C123.088138,16.2512621 122.476539,18.1634078 122.476539,20.8424951 L122.476539,35.9223301 L118.086764,35.9223301 L118.086764,19.0025534 C118.086764,17.2437961 117.878863,15.9610097 117.463061,15.1541942 C116.807318,13.9436117 115.584119,13.3386796 113.792752,13.3386796 C112.161582,13.3386796 110.678507,13.9759417 109.343169,15.2508252 C108.007832,16.5257087 107.339985,18.8333592 107.339985,22.1737767 L107.339985,35.9223301 L103.022477,35.9223301 L103.022477,9.99826214 Z M148.623308,32.0010485 C149.535011,32.7270388 150.614388,33.0902136 151.861795,33.0902136 C153.381182,33.0902136 154.852153,32.735301 156.275422,32.0251165 C158.674472,30.8472233 159.87382,28.9189126 159.87382,26.2401845 L159.87382,22.7302136 C159.345879,23.0693204 158.666284,23.3516699 157.83468,23.5776214 C157.003075,23.8035728 156.187491,23.9648641 155.387926,24.0614951 L152.773142,24.4006019 C151.206052,24.6103883 150.030556,24.941233 149.247011,25.3927767 C147.919862,26.1514563 147.255931,27.3616796 147.255931,29.0238058 C147.255931,30.2825243 147.71196,31.2750583 148.623308,32.0010485 Z M157.71471,20.2131359 C158.706512,20.0838155 159.370087,19.6642427 159.70579,18.9544175 C159.897671,18.5671748 159.99379,18.0103786 159.99379,17.2840291 C159.99379,15.7993592 159.470121,14.7224078 158.422428,14.0528155 C157.37509,13.3828641 155.875639,13.048068 153.924786,13.048068 C151.669913,13.048068 150.070784,13.6612621 149.127041,14.8876505 C148.599456,15.5655049 148.255565,16.5742039 148.095723,17.9133883 L144.065859,17.9133883 C144.145602,14.7184563 145.173004,12.4955825 147.148064,11.244767 C149.123125,9.99431068 151.413953,9.36890291 154.020549,9.36890291 C157.043303,9.36890291 159.497889,9.94976699 161.385019,11.1118544 C163.256129,12.2735825 164.191684,14.080835 164.191684,16.5336117 L164.191684,31.4686796 C164.191684,31.9202233 164.28353,32.2833981 164.46758,32.5578447 C164.651273,32.831932 165.039308,32.9691553 165.630972,32.9691553 C165.822853,32.9691553 166.038586,32.957301 166.278527,32.9328738 C166.518467,32.9088058 166.774428,32.8725243 167.046052,32.8240291 L167.046052,36.0433883 C166.374645,36.2370097 165.862724,36.358068 165.511001,36.4065631 C165.159278,36.454699 164.679397,36.4791262 164.071713,36.4791262 C162.584366,36.4791262 161.504989,35.9463981 160.833226,34.8816602 C160.481503,34.3166019 160.233731,33.5180485 160.089553,32.4852816 C159.210245,33.6470097 157.946818,34.6557087 156.299629,35.5106602 C154.65244,36.3659709 152.837221,36.7938058 150.854329,36.7938058 C148.471298,36.7938058 146.524361,36.0635049 145.013162,34.6032621 C143.501963,33.1426602 142.746185,31.3152913 142.746185,29.1204369 C142.746185,26.7161553 143.489859,24.8525049 144.977206,23.5291262 C146.464554,22.2057476 148.415407,21.3910291 150.830121,21.0842524 L157.71471,20.2131359 Z M211.13604,0.36461165 L211.13604,4.60057282 L199.261824,4.60057282 L199.261824,35.9223301 L194.416376,35.9223301 L194.416376,4.60057282 L182.542517,4.60057282 L182.542517,0.36461165 L211.13604,0.36461165 Z M230.926161,10.7123981 C232.637073,11.5756117 233.940727,12.6931553 234.836054,14.0646699 C235.699698,15.3718835 236.275342,16.8967864 236.563342,18.6397379 C236.818947,19.8337961 236.947105,21.7380388 236.947105,24.3521068 L218.116391,24.3521068 C218.196489,26.9823398 218.812005,29.0924175 219.963649,30.6819806 C221.114937,32.2711845 222.898116,33.0661456 225.312831,33.0661456 C227.567703,33.0661456 229.366902,32.3157282 230.710072,30.8148932 C231.477953,29.9434175 232.021557,28.9350777 232.341241,27.7891553 L236.587194,27.7891553 C236.475412,28.7414563 236.103397,29.8022427 235.471862,30.972233 C234.83997,32.1422233 234.132608,33.0984757 233.348707,33.8406311 C232.037577,35.1316796 230.41424,36.0031553 228.479407,36.454699 C227.439901,36.7129806 226.264405,36.842301 224.95292,36.842301 C221.75466,36.842301 219.044114,35.668 216.821281,33.3201165 C214.598447,30.972233 213.486675,27.6842621 213.486675,23.4565631 C213.486675,19.293165 214.606279,15.9125146 216.845132,13.3142524 C219.083985,10.7163495 222.010621,9.41739806 225.624682,9.41739806 C227.447733,9.41739806 229.214892,9.84882524 230.926161,10.7123981 Z M232.509271,20.8906311 C232.333409,19.0025534 231.925439,17.4938155 231.285716,16.3644175 C230.102388,14.2665534 228.127328,13.2176214 225.36089,13.2176214 C223.377998,13.2176214 221.714789,13.9396602 220.371263,15.3840971 C219.028094,16.8281748 218.31646,18.6638058 218.236361,20.8906311 L232.509271,20.8906311 Z M259.219936,11.3780388 C261.034799,12.7980485 262.126279,15.2429223 262.494378,18.712301 L258.296485,18.712301 C258.040524,17.114835 257.456692,15.7875049 256.545345,14.7303107 C255.633642,13.6734757 254.170502,13.1450583 252.15557,13.1450583 C249.404796,13.1450583 247.437923,14.5004078 246.25424,17.211466 C245.486714,18.9705825 245.102952,21.1410097 245.102952,23.7227476 C245.102952,26.3210097 245.646556,28.5072427 246.734121,30.2825243 C247.821686,32.0574466 249.532598,32.9450874 251.86757,32.9450874 C253.658581,32.9450874 255.077933,32.3922427 256.125271,31.2869126 C257.172964,30.1815825 257.896346,28.6688932 258.296485,26.7484854 L262.494378,26.7484854 C262.014497,30.185534 260.81515,32.6990194 258.89598,34.2885825 C256.976811,35.8777864 254.522225,36.6727476 251.531867,36.6727476 C248.173409,36.6727476 245.494902,35.4341456 243.495634,32.957301 C241.496722,30.4800971 240.497088,27.3857476 240.497088,23.6742524 C240.497088,19.1236117 241.592841,15.5816699 243.783634,13.048068 C245.974428,10.514466 248.765073,9.24784466 252.15557,9.24784466 C255.04981,9.24784466 257.404717,9.95802913 259.219936,11.3780388 Z M266.811886,0.243553398 L271.12975,0.243553398 L271.12975,13.508233 C272.153236,12.2010194 273.072771,11.2810485 273.888356,10.7486796 C275.279941,9.82870874 277.015061,9.36890291 279.093716,9.36890291 C282.819916,9.36890291 285.346769,10.6840194 286.673918,13.3142524 C287.39374,14.7507864 287.753651,16.7433981 287.753651,19.293165 L287.753651,35.9223301 L283.315817,35.9223301 L283.315817,19.5837767 C283.315817,17.679534 283.075876,16.2835922 282.595995,15.3959515 C281.81245,13.9759417 280.341122,13.2661165 278.182368,13.2661165 C276.391357,13.2661165 274.76802,13.8872136 273.312712,15.129767 C271.857404,16.3723204 271.12975,18.7202039 271.12975,22.1737767 L271.12975,35.9223301 L266.811886,35.9223301 L266.811886,0.243553398 Z" id="path-5"></path>
    </defs>
    <g id="Page-1" stroke="none" stroke-width="1" fill="none" fill-rule="evenodd">
        <g id="model-1" transform="translate(-1060.000000, -234.000000)">
            <g id="Group-2" transform="translate(1060.000000, 234.000000)">
                <g id="Group-4" transform="translate(88.000000, 0.000000)">
                    <mask id="mask-2" fill="white">
                        <use xlink:href="#path-1"></use>
                    </mask>
                    <g id="Clip-3"></g>
                    <polygon id="Fill-2" fill="#FFFFFF" mask="url(#mask-2)" points="0 205 184 205 184 0 0 0"></polygon>
                </g>
                <g id="Group" transform="translate(0.000000, 261.000000)">
                    <g id="Group-7">
                        <mask id="mask-4" fill="white">
                            <use xlink:href="#path-3"></use>
                        </mask>
                        <g id="Clip-6"></g>
                        <polygon id="Fill-5" fill="#FFFFFF" mask="url(#mask-4)" points="0.078183613 60.9368966 359.836525 60.9368966 359.836525 0.23137931 0.078183613 0.23137931"></polygon>
                    </g>
                    <g id="Group-10" transform="translate(36.000000, 76.000000)">
                        <mask id="mask-6" fill="white">
                            <use xlink:href="#path-5"></use>
                        </mask>
                        <g id="Clip-9"></g>
                        <polygon id="Fill-8" fill="#FFFFFF" mask="url(#mask-6)" points="0.249196539 36.8491262 287.793523 36.8491262 287.793523 0.208349515 0.249196539 0.208349515"></polygon>
                    </g>
                </g>
            </g>
        </g>
    </g>
</svg>