<?xml version="1.0" encoding="UTF-8"?>
<svg width="36px" height="40px" viewBox="0 0 36 40" version="1.1" xmlns="http://www.w3.org/2000/svg" xmlns:xlink="http://www.w3.org/1999/xlink">
    <!-- Generator: Sketch 51.1 (57501) - http://www.bohemiancoding.com/sketch -->
    <title>logo</title>
    <desc>Created with Sketch.</desc>
    <defs>
        <path d="M1.68845253e-09,12.3705088 C0.0824273711,10.4588028 1.150533,8.71307601 2.84243319,7.75090824 L15.1498423,0.751634825 C16.9119503,-0.250544942 19.0828879,-0.250544942 20.8449958,0.751634825 L33.1524049,7.75090824 C34.9145129,8.75300252 35.9999817,10.6050348 35.9999817,12.6093089 L35.9999817,18.9242211 C34.3276294,15.7992905 29.4669374,13.8846861 22.8012743,14.22567 C12.8977217,14.7318887 2.76005003,20.0260717 0.158079647,26.04975 C0.101362074,26.181024 0.0486431107,26.3115007 0,26.4412569 L1.68845286e-09,12.3705088 Z M17.5163417,40 L16.8606459,40 C16.7473024,39.9960543 16.6240349,39.9898031 16.4610289,39.9811942 C16.1631294,39.9558063 15.7651013,39.9294781 15.468059,39.8953712 C11.348044,39.4149677 9.12704208,36.9452494 10.3735052,33.7842458 C11.8409713,30.0627431 17.557385,26.7921528 23.1422943,26.4791213 C28.7269464,26.1663461 32.0647072,28.9296064 30.5972412,32.6510236 C30.1326894,33.8288669 29.2421626,34.9618327 28.0653951,35.9699962 C27.6972855,36.2692653 27.2011006,36.6613668 26.8211608,36.942514 C25.9077451,37.5587468 25.9077451,37.5587468 25.4135319,37.842373 C24.5171757,38.3284182 24.5171757,38.3284182 24.0532239,38.5403257 C23.178728,38.9166987 23.178728,38.9166987 22.7031175,39.0861222 C22.2564825,39.2329786 21.4251927,39.5057486 21.3215494,39.5057486 C20.3813013,39.7232124 20.3444389,39.7315895 19.857341,39.8079241 C18.8417392,39.9428132 18.8021336,39.948284 18.2449114,39.979741 C18.3787305,39.9723041 18.5116923,39.9499936 18.6439682,39.9128093 C23.1952732,39.6578194 27.8536506,36.9925204 29.0496209,33.9599094 C30.2456769,30.9270419 27.5254039,28.6756422 22.9743561,28.9306321 C18.4230511,29.1857076 13.7644165,31.8510065 12.568532,34.8836176 C11.3728189,37.9163141 14.0928347,40.1679703 18.6439682,39.9128093 C18.511778,39.9499936 18.3787305,39.9723041 18.2450829,39.979741 C17.9286269,39.9890261 17.6981818,39.9958011 17.5163416,40 Z M3.70921372,35.7303928 C2.67038013,34.2542206 2.58559663,34.1335214 2.01903027,33.0669744 C1.24637742,31.5963585 1.18362563,29.8456212 1.98208215,27.9329829 C4.40599862,22.1247168 13.8498858,17.0198743 23.0755991,16.5317776 C30.5784671,16.1345472 35.6264714,18.9124247 35.9463169,23.0879173 C35.9656054,23.5897765 36.0029821,24.2584092 35.9998102,24.7602684 C35.9758068,25.2176775 35.9592616,25.828525 35.9162269,26.2845664 C36.3626047,21.7291961 31.3137432,18.5848613 23.5145187,18.9975638 C14.6166235,19.4684789 5.50809836,24.3918451 3.17033701,29.9936744 C2.2528064,32.1920759 2.51444364,34.1686541 3.70921372,35.7303928 Z M9.9989662,37.9081079 L9.82314117,37.8264735 C8.51015427,37.1541651 8.27372061,37.0330384 7.1801078,36.2963628 C5.19022454,34.9084925 4.4842669,32.863615 5.53998861,30.5101509 C7.61182639,25.8913536 15.6836611,21.8322862 23.5693836,21.4440313 C31.3543775,21.0607343 36.0469598,24.3979143 34.1717786,28.9271274 L33.9738361,29.3882122 C33.2737936,30.8042911 33.2316162,30.8890883 32.6797948,31.7378296 C32.8992546,31.4083002 33.0858812,31.0740693 33.2375313,30.7364192 C35.1151129,26.5505834 30.8438763,23.4424071 23.6966875,23.7943326 C16.550013,24.146429 9.23411447,27.8251058 7.35627573,32.011198 C6.21714215,34.5510108 7.34170223,36.6941916 9.9989662,37.9081079 Z M20.8575119,36.8985767 C22.5265209,36.8171133 24.2356499,35.9651237 24.6740552,34.9955977 C25.1125462,34.0259862 24.114947,33.3064068 22.4456808,33.3879557 C20.7763289,33.4695901 19.0674571,34.3214942 18.6289661,35.2911057 C18.1904751,36.2603753 19.1880743,36.9802111 20.8575119,36.8985767 C20.5947602,37.2795658 20.3223214,37.5981536 20.0424244,37.8562209 C16.9855036,38.0056417 15.1584149,36.687524 15.9616721,34.9119973 C16.7650151,33.136556 19.8941176,31.576185 22.9510385,31.4268496 C26.0080451,31.2777707 27.8352195,32.5958029 27.0318765,34.3712442 C26.2288765,36.146771 23.099431,37.706971 20.0424244,37.8562209 C20.3223214,37.5981536 20.5949317,37.2795658 20.8575119,36.8985767 Z" id="path-1"></path>
    </defs>
    <g id="Page-1" stroke="none" stroke-width="1" fill="none" fill-rule="evenodd">
        <g id="about-us" transform="translate(-55.000000, -20.000000)">
            <g id="navigation---dark">
                <g id="logo" transform="translate(55.000000, 20.000000)">
                    <mask id="mask-2" fill="white">
                        <use xlink:href="#path-1"></use>
                    </mask>
                    <g id="Clip-3"></g>
                    <polygon id="Fill-2" fill="#FFFFFF" mask="url(#mask-2)" points="0 40 36 40 36 0 0 0"></polygon>
                </g>
            </g>
        </g>
    </g>
</svg>