<?xml version="1.0" encoding="UTF-8"?>
<svg width="129px" height="40px" viewBox="0 0 129 40" version="1.1" xmlns="http://www.w3.org/2000/svg" xmlns:xlink="http://www.w3.org/1999/xlink">
    <!-- Generator: Sketch 51.1 (57501) - http://www.bohemiancoding.com/sketch -->
    <title>logo</title>
    <desc>Created with Sketch.</desc>
    <defs>
        <path d="M0.00514072874,12.3689228 C0.0875222566,10.4574619 1.15503386,8.71195895 2.84599311,7.74991453 L15.1465575,0.751538462 C16.9076855,-0.250512821 19.0774157,-0.250512821 20.8385437,0.751538462 L33.1391081,7.74991453 C34.9002361,8.75188034 35.9851012,10.6036752 35.9851012,12.6076923 L35.9851012,18.9217949 C34.3136789,15.797265 29.4556903,13.882906 22.7937342,14.2238462 C12.8956894,14.73 2.76365577,20.0235043 0.163132459,26.0464103 C0.106446429,26.1776675 0.0537567851,26.3081274 0.00514072706,26.437867 L0.00514072874,12.3689228 Z M17.5117408,39.9948718 L16.8564097,39.9948718 C16.7431292,39.9909266 16.6199303,39.9846762 16.4570149,39.9760684 C16.1592811,39.9506838 15.7614743,39.924359 15.4645972,39.8902564 C11.3468735,39.4099145 9.12710685,36.9405128 10.3728768,33.7799145 C11.8395267,30.0588889 17.5527613,26.7887179 23.1345645,26.4757265 C28.7161108,26.1629915 32.0520153,28.9258974 30.5853654,32.6468376 C30.1210719,33.8245299 29.2310404,34.9573504 28.0549274,35.9653846 C27.6870226,36.2646154 27.1911136,36.6566667 26.8113851,36.9377778 C25.8984773,37.5539316 25.8984773,37.5539316 25.404539,37.8375214 C24.5086813,38.3235043 24.5086813,38.3235043 24.0449876,38.5353846 C23.170978,38.9117094 23.170978,38.9117094 22.695632,39.0811111 C22.2492454,39.2279487 21.4184179,39.5006838 21.3148322,39.5006838 C20.375107,39.7181197 20.3382651,39.7264957 19.8514381,39.8028205 C18.8364012,39.9376923 18.7968176,39.9431624 18.2399053,39.9746154 C18.37365,39.9671795 18.5065378,39.9448718 18.6387402,39.9076923 C23.187514,39.652735 27.8433007,36.9877778 29.0386058,33.9555556 C30.2339966,30.9230769 27.5152365,28.6719658 22.9667197,28.9269231 C18.4179459,29.1819658 13.7619022,31.8469231 12.5666828,34.8791453 C11.3716347,37.911453 14.0901377,40.1628205 18.6387402,39.9076923 C18.5066235,39.9448718 18.37365,39.9671795 18.2400767,39.9746154 C17.9237967,39.9838993 17.6934797,39.9906734 17.5117407,39.9948718 Z M3.71229158,35.725812 C2.67403574,34.2498291 2.58929939,34.1291453 2.02304812,33.062735 C1.25082498,31.5923077 1.18810809,29.8417949 1.98612055,27.9294017 C4.40868897,22.1218803 13.847324,17.0176923 23.0679064,16.5296581 C30.5666018,16.1324786 35.6117986,18.91 35.9314663,23.0849573 C35.950744,23.5867521 35.9881,24.2552991 35.9849299,24.757094 C35.9609398,25.2144444 35.9444038,25.8252137 35.901393,26.2811966 C36.3475226,21.7264103 31.3014689,18.5824786 23.5065819,18.9951282 C14.6136353,19.4659829 5.51017578,24.3887179 3.17371457,29.9898291 C2.25669424,32.1879487 2.51818598,34.1642735 3.71229158,35.725812 Z M9.99854605,37.9032479 L9.82281881,37.8216239 C8.51056212,37.1494017 8.27425995,37.0282906 7.18125534,36.2917094 C5.19247875,34.9040171 4.48691373,32.8594017 5.5420483,30.5062393 C7.61273384,25.8880342 15.6800795,21.8294872 23.5614164,21.4412821 C31.3420807,21.0580342 36.0320532,24.3947863 34.1579149,28.9234188 L33.9600825,29.3844444 C33.2604293,30.8003419 33.2182753,30.8851282 32.6667608,31.7337607 C32.8860986,31.4042735 33.0726213,31.0700855 33.2241872,30.7324786 C35.1007245,26.5471795 30.8318634,23.4394017 23.6886494,23.7912821 C16.5459495,24.1433333 9.23411969,27.8215385 7.3573253,32.007094 C6.21882524,34.5465812 7.3427599,36.6894872 9.99854605,37.9032479 Z M20.8510528,36.8938462 C22.5191336,36.8123932 24.2273121,35.9605128 24.6654736,34.9911111 C25.1037207,34.0216239 24.1066763,33.3021368 22.4383385,33.3836752 C20.769915,33.4652991 19.0619935,34.317094 18.6237464,35.2865812 C18.1854993,36.2557265 19.1825436,36.9754701 20.8510528,36.8938462 C20.5884473,37.2747863 20.31616,37.5933333 20.0364187,37.8513675 C16.9811979,38.0007692 15.1551254,36.6828205 15.9579358,34.9075214 C16.760832,33.1323077 19.8881943,31.5721368 22.9434151,31.4228205 C25.9987216,31.2737607 27.8248798,32.5916239 27.0219836,34.3668376 C26.2194302,36.1421368 23.0917251,37.7021368 20.0364187,37.8513675 C20.31616,37.5933333 20.5886186,37.2747863 20.8510528,36.8938462 Z" id="path-1"></path>
        <path d="M5.97886673,11.8598276 C2.67990918,11.8598276 0.0271391905,9.52137931 0.0271391905,5.95396552 C0.0271391905,2.36948276 2.67990918,0.0651724138 5.97886673,0.0651724138 C8.18950839,0.0651724138 9.63492794,1.12344828 10.5361895,2.42068966 L8.92072063,3.35948276 C8.30854294,2.50603448 7.23723198,1.84034483 5.97886673,1.84034483 C3.7342152,1.84034483 2.06773149,3.54724138 2.06773149,5.95396552 C2.06773149,8.32655172 3.7342152,10.0675862 5.97886673,10.0675862 C7.13520237,10.0675862 8.15549852,9.53844828 8.66564659,9.04344828 L8.66564659,7.28534483 L5.26465943,7.28534483 L5.26465943,5.52724138 L10.6382192,5.52724138 L10.6382192,9.77741379 C9.53289832,11.0234483 7.93443435,11.8598276 5.97886673,11.8598276 Z M12.6618065,11.637931 L12.6618065,0.252931034 L14.4473248,0.252931034 L14.4473248,11.637931 L12.6618065,11.637931 Z M20.484077,11.8427586 C17.8653169,11.8427586 16.2668529,9.86275862 16.2668529,7.50724138 C16.2668529,5.13465517 17.8653169,3.1887931 20.484077,3.1887931 C23.1028371,3.1887931 24.7013011,5.13465517 24.7013011,7.50724138 C24.7013011,9.86275862 23.1028371,11.8427586 20.484077,11.8427586 Z M20.484077,10.2553448 C22.0145212,10.2553448 22.8477631,8.97517241 22.8477631,7.50724138 C22.8477631,6.05637931 22.0145212,4.7762069 20.484077,4.7762069 C18.9706377,4.7762069 18.1203909,6.05637931 18.1203909,7.50724138 C18.1203909,8.97517241 18.9706377,10.2553448 20.484077,10.2553448 Z M28.3063475,9.16293103 C28.7144659,9.77741379 29.5817177,10.2553448 30.4319645,10.2553448 C31.8433741,10.2553448 32.7446357,9.11172414 32.7446357,7.50724138 C32.7446357,5.91982759 31.8433741,4.7762069 30.4319645,4.7762069 C29.5817177,4.7762069 28.7144659,5.2712069 28.3063475,5.88568966 L28.3063475,9.16293103 Z M28.3063475,11.637931 L26.5208292,11.637931 L26.5208292,0.252931034 L28.3063475,0.252931034 L28.3063475,4.53724138 C28.96954,3.64965517 29.9218164,3.1887931 30.9421125,3.1887931 C33.0677295,3.1887931 34.5981737,4.84448276 34.5981737,7.50724138 C34.5981737,10.2382759 33.0507246,11.8427586 30.9421125,11.8427586 C29.8878065,11.8427586 28.9355301,11.3306897 28.3063475,10.5113793 L28.3063475,11.637931 Z M40.2098026,11.8427586 C37.7270819,11.8427586 35.9075538,10.1187931 35.9075538,7.50724138 C35.9075538,5.11758621 37.6420573,3.1887931 40.0737631,3.1887931 C42.5394788,3.1887931 44.1039329,5.06637931 44.1039329,7.66086207 L44.1039329,8.10465517 L37.7780967,8.10465517 C37.9141362,9.33362069 38.8324028,10.3748276 40.3798519,10.3748276 C41.1960888,10.3748276 42.1313603,10.0505172 42.7265331,9.45310345 L43.54277,10.6308621 C42.7095281,11.4160345 41.5021777,11.8427586 40.2098026,11.8427586 Z M42.3864344,6.82448276 C42.3354195,5.85155172 41.672227,4.65672414 40.0567581,4.65672414 C38.5433189,4.65672414 37.8291115,5.83448276 37.7610918,6.82448276 L42.3864344,6.82448276 Z M49.8175913,11.8427586 C47.7259842,11.8427586 46.2125449,11.0917241 45.1922488,10.0334483 L46.3145745,8.48017241 C47.0797966,9.31655172 48.321157,10.0675862 49.902616,10.0675862 C51.5350898,10.0675862 52.1642725,9.26534483 52.1642725,8.49724138 C52.1642725,6.10758621 45.5663574,7.59258621 45.5663574,3.41068966 C45.5663574,1.51603448 47.1988312,0.0651724138 49.6985568,0.0651724138 C51.4500652,0.0651724138 52.8954847,0.645517241 53.9327858,1.66965517 L52.81046,3.15465517 C51.9091984,2.25 50.701848,1.84034483 49.5115025,1.84034483 C48.3551668,1.84034483 47.6069497,2.42068966 47.6069497,3.25706897 C47.6069497,5.39068966 54.2048648,4.07637931 54.2048648,8.30948276 C54.2048648,10.2041379 52.8614748,11.8427586 49.8175913,11.8427586 Z M55.6332794,14.8639655 L55.8883534,13.2594828 C56.0754077,13.3448276 56.3644916,13.3960345 56.5685508,13.3960345 C57.1467187,13.3960345 57.5208272,13.2253448 57.7588963,12.6791379 L58.1670148,11.7403448 L54.7830326,3.39362069 L56.7045903,3.39362069 L59.1022863,9.57258621 L61.4999822,3.39362069 L63.404535,3.39362069 L59.442385,13.122931 C58.8812221,14.5225862 57.9119408,14.9663793 56.6365706,14.9834483 C56.3814965,14.9834483 55.8713485,14.9322414 55.6332794,14.8639655 Z M71.8729931,11.637931 L70.0874748,11.637931 L70.0874748,6.48310345 C70.0874748,5.18586207 69.4242823,4.7762069 68.4209911,4.7762069 C67.5197295,4.7762069 66.7375025,5.32241379 66.3123791,5.86862069 L66.3123791,11.637931 L64.5268608,11.637931 L64.5268608,3.39362069 L66.3123791,3.39362069 L66.3123791,4.50310345 C66.856537,3.85448276 67.927848,3.1887931 69.2202231,3.1887931 C70.9887364,3.1887931 71.8729931,4.14465517 71.8729931,5.83448276 L71.8729931,11.637931 Z M76.668385,11.8427586 C75.2739803,11.8427586 74.559773,11.0917241 74.559773,9.70913793 L74.559773,4.94689655 L73.1993781,4.94689655 L73.1993781,3.39362069 L74.559773,3.39362069 L74.559773,1.14051724 L76.3452912,1.14051724 L76.3452912,3.39362069 L78.0117749,3.39362069 L78.0117749,4.94689655 L76.3452912,4.94689655 L76.3452912,9.26534483 C76.3452912,9.82862069 76.6173702,10.2553448 77.1275183,10.2553448 C77.467617,10.2553448 77.7737058,10.1017241 77.9097453,9.94810345 L78.3348687,11.3136207 C78.0117749,11.6037931 77.4846219,11.8427586 76.668385,11.8427586 Z M86.9563712,11.637931 L85.1708529,11.637931 L85.1708529,6.44896552 C85.1708529,5.15172414 84.5246654,4.7762069 83.5213741,4.7762069 C82.6031076,4.7762069 81.8208806,5.32241379 81.4127621,5.86862069 L81.4127621,11.637931 L79.6272438,11.637931 L79.6272438,0.252931034 L81.4127621,0.252931034 L81.4127621,4.50310345 C81.95692,3.85448276 83.0112261,3.1887931 84.3036012,3.1887931 C86.0721145,3.1887931 86.9563712,4.11051724 86.9563712,5.80034483 L86.9563712,11.637931 Z" id="path-3"></path>
        <path d="M0.0675500618,0.0886893204 L3.86638813,0.0886893204 C4.61737083,0.0886893204 5.22267738,0.305563107 5.68247837,0.739223301 C6.14227936,1.17297087 6.37213721,1.78234951 6.37213721,2.5674466 C6.37213721,3.24253398 6.16718418,3.8303301 5.75719283,4.33083495 C5.34720148,4.83133981 4.71699011,5.08150485 3.86638813,5.08150485 L1.21121014,5.08150485 L1.21121014,8.73786408 L0.0675500618,8.73786408 L0.0675500618,0.0886893204 Z M4.52730408,1.278 C4.2744178,1.15628155 3.92771199,1.09546602 3.48710136,1.09546602 L1.21121014,1.09546602 L1.21121014,4.09237864 L3.48710136,4.09237864 C4.00046477,4.09237864 4.41719407,3.98053398 4.73711867,3.75675728 C5.05695797,3.53306796 5.21696292,3.1385534 5.21696292,2.57330097 C5.21696292,1.9374466 4.98710507,1.50562136 4.52730408,1.278 Z M7.67094067,0.0592427184 L8.70542892,0.0592427184 L8.70542892,3.28578641 C8.95063906,2.96781553 9.17094438,2.74403883 9.36634487,2.61454369 C9.69974536,2.39076699 10.1154512,2.27892233 10.6134623,2.27892233 C11.5061978,2.27892233 12.1115896,2.59881553 12.4295525,3.23860194 C12.6020099,3.58802913 12.6882386,4.07271845 12.6882386,4.69293204 L12.6882386,8.73786408 L11.6250074,8.73786408 L11.6250074,4.76362136 C11.6250074,4.30042718 11.5675216,3.96087379 11.4525501,3.74496117 C11.2648257,3.3995534 10.9123201,3.2268932 10.3951187,3.2268932 C9.96602225,3.2268932 9.57709765,3.37797087 9.22843016,3.68021359 C8.87976267,3.98245631 8.70542892,4.55356311 8.70542892,5.39362136 L8.70542892,8.73786408 L7.67094067,8.73786408 L7.67094067,0.0592427184 Z M15.3376168,7.78403883 C15.5560457,7.96063107 15.8146465,8.04897087 16.1135043,8.04897087 C16.4774388,8.04897087 16.8299444,7.96264078 17.1709357,7.7898932 C17.7457083,7.50337864 18.0330519,7.0343301 18.0330519,6.38274757 L18.0330519,5.52897087 C17.9065661,5.61145631 17.7437466,5.68013592 17.544508,5.73509709 C17.3452695,5.79005825 17.149869,5.82929126 16.9583066,5.85279612 L16.331848,5.93528155 C15.9563993,5.98631068 15.6747701,6.06678641 15.4870457,6.17662136 C15.1690828,6.36116505 15.0100161,6.65554369 15.0100161,7.05984466 C15.0100161,7.36601942 15.1192732,7.6074466 15.3376168,7.78403883 Z M17.5157651,4.91670874 C17.7532991,4.88525243 17.9123659,4.78319417 17.9927948,4.61053398 C18.0387664,4.51633981 18.0617948,4.38090291 18.0617948,4.2042233 C18.0617948,3.84308738 17.9362472,3.58112621 17.6853226,3.41825243 C17.434398,3.25529126 17.0751545,3.17385437 16.6077627,3.17385437 C16.0675328,3.17385437 15.6844079,3.32300971 15.4583028,3.62132039 C15.3319023,3.78620388 15.2495117,4.03156311 15.2112163,4.35731068 L14.2456428,4.35731068 C14.2648331,3.58016505 14.5109815,3.03946602 14.9841731,2.73521359 C15.4573646,2.43104854 16.0062089,2.27892233 16.6307058,2.27892233 C17.3549073,2.27892233 17.9429852,2.42021359 18.39511,2.7028835 C18.8433968,2.98546602 19.0675402,3.42506796 19.0675402,4.02168932 L19.0675402,7.65454369 C19.0675402,7.76437864 19.0895451,7.85271845 19.133555,7.91947573 C19.1776502,7.98614563 19.2705315,8.01952427 19.4123696,8.01952427 C19.4583412,8.01952427 19.5100272,8.01664078 19.567513,8.01069903 C19.6249988,8.00484466 19.6862373,7.99601942 19.7513993,7.9842233 L19.7513993,8.76731068 C19.5904561,8.81440777 19.4678937,8.84385437 19.3836267,8.85565049 C19.2992744,8.86735922 19.1843881,8.87330097 19.0387973,8.87330097 C18.6824536,8.87330097 18.4238529,8.74371845 18.2629098,8.48472816 C18.1786428,8.34728155 18.1191953,8.15303883 18.0847379,7.90182524 C17.8739852,8.18440777 17.5713745,8.42976699 17.1767355,8.63772816 C16.7820964,8.8457767 16.3472002,8.94984466 15.8721323,8.94984466 C15.3011978,8.94984466 14.8347441,8.77220388 14.472686,8.41700971 C14.1106279,8.06172816 13.9295562,7.61723301 13.9295562,7.08334951 C13.9295562,6.49852427 14.1077281,6.04520388 14.4640717,5.72330097 C14.8204153,5.40139806 15.2878072,5.2032233 15.8663325,5.12860194 L17.5157651,4.91670874 Z M20.791602,2.43200971 L21.7744042,2.43200971 L21.7744042,3.52127184 C21.8548331,3.30929126 22.0521953,3.05117476 22.3663201,2.74700971 C22.6805303,2.44284466 23.0425884,2.29071845 23.4525797,2.29071845 C23.4716848,2.29071845 23.5042658,2.29264078 23.5502373,2.29657282 C23.5962089,2.30050485 23.6747614,2.30836893 23.7858949,2.32016505 L23.7858949,3.43878641 C23.7245711,3.42707767 23.6680235,3.41921359 23.6163375,3.41528155 C23.5646514,3.41134951 23.5081038,3.40942718 23.44678,3.40942718 C22.9257404,3.40942718 22.5253869,3.58112621 22.2456341,3.92461165 C21.9659666,4.26800971 21.8260902,4.66348544 21.8260902,5.11095146 L21.8260902,8.73786408 L20.791602,8.73786408 L20.791602,2.43200971 Z M24.6824685,2.43200971 L25.7054425,2.43200971 L25.7054425,3.32694175 C25.9506527,3.01683495 26.1728344,2.79113592 26.3720729,2.64984466 C26.7130643,2.41042718 27.1000272,2.29071845 27.5329617,2.29071845 C28.023382,2.29071845 28.418021,2.41435922 28.7168789,2.66164078 C28.8854981,2.80293204 29.0387651,3.01098058 29.1766799,3.28578641 C29.4065377,2.94815534 29.6766527,2.69790291 29.9870247,2.53502913 C30.2973968,2.37215534 30.645979,2.29071845 31.0330272,2.29071845 C31.8606007,2.29071845 32.4237738,2.5968932 32.7226316,3.20924272 C32.8835748,3.53892233 32.9640037,3.98245631 32.9640037,4.53984466 L32.9640037,8.73786408 L31.8893436,8.73786408 L31.8893436,4.35731068 C31.8893436,3.93736893 31.7868245,3.64884466 31.5818714,3.49182524 C31.3768331,3.33480583 31.1268467,3.25633981 30.8318269,3.25633981 C30.4256737,3.25633981 30.076068,3.39562136 29.7830099,3.67435922 C29.4898665,3.95300971 29.3433375,4.41812621 29.3433375,5.06979612 L29.3433375,8.73786408 L28.2916205,8.73786408 L28.2916205,4.62224272 C28.2916205,4.19443689 28.2418109,3.88240777 28.1421916,3.68615534 C27.9850865,3.39168932 27.6920284,3.24454369 27.2628467,3.24454369 C26.8720457,3.24454369 26.5167256,3.3995534 26.196801,3.70966019 C25.8768764,4.01976699 25.7168714,4.58108738 25.7168714,5.39362136 L25.7168714,8.73786408 L24.6824685,8.73786408 L24.6824685,2.43200971 Z M35.6076675,7.78403883 C35.8260964,7.96063107 36.0846972,8.04897087 36.383555,8.04897087 C36.7475748,8.04897087 37.0999951,7.96264078 37.4409864,7.7898932 C38.015759,7.50337864 38.3031026,7.0343301 38.3031026,6.38274757 L38.3031026,5.52897087 C38.1766168,5.61145631 38.0137973,5.68013592 37.8145587,5.73509709 C37.6153201,5.79005825 37.4199197,5.82929126 37.2283572,5.85279612 L36.6018986,5.93528155 C36.2264499,5.98631068 35.9448208,6.06678641 35.7570964,6.17662136 C35.4391335,6.36116505 35.2800667,6.65554369 35.2800667,7.05984466 C35.2800667,7.36601942 35.3893239,7.6074466 35.6076675,7.78403883 Z M37.7858158,4.91670874 C38.0234351,4.88525243 38.1824166,4.78319417 38.2628455,4.61053398 C38.3088171,4.51633981 38.3318455,4.38090291 38.3318455,4.2042233 C38.3318455,3.84308738 38.2063832,3.58112621 37.9553733,3.41825243 C37.7044487,3.25529126 37.3452052,3.17385437 36.8778133,3.17385437 C36.3375834,3.17385437 35.9544586,3.32300971 35.7283535,3.62132039 C35.601953,3.78620388 35.5195624,4.03156311 35.481267,4.35731068 L34.5157787,4.35731068 C34.5348838,3.58016505 34.7810321,3.03946602 35.2542237,2.73521359 C35.7274153,2.43104854 36.2762596,2.27892233 36.9007565,2.27892233 C37.624958,2.27892233 38.2130358,2.42021359 38.6651607,2.7028835 C39.1134475,2.98546602 39.3375909,3.42506796 39.3375909,4.02168932 L39.3375909,7.65454369 C39.3375909,7.76437864 39.3595958,7.85271845 39.403691,7.91947573 C39.4477009,7.98614563 39.5406675,8.01952427 39.6824203,8.01952427 C39.7283918,8.01952427 39.7800779,8.01664078 39.8375637,8.01069903 C39.8950494,8.00484466 39.9563733,7.99601942 40.0214499,7.9842233 L40.0214499,8.76731068 C39.8605921,8.81440777 39.7379444,8.84385437 39.6536774,8.85565049 C39.5694104,8.86735922 39.4544388,8.87330097 39.308848,8.87330097 C38.9525043,8.87330097 38.6939036,8.74371845 38.5329604,8.48472816 C38.4486934,8.34728155 38.3893313,8.15303883 38.3547886,7.90182524 C38.1441211,8.18440777 37.8414252,8.42976699 37.4467862,8.63772816 C37.0521471,8.8457767 36.6172509,8.94984466 36.1421829,8.94984466 C35.5712485,8.94984466 35.1047948,8.77220388 34.7427367,8.41700971 C34.3806786,8.06172816 34.1996069,7.61723301 34.1996069,7.08334951 C34.1996069,6.49852427 34.3777787,6.04520388 34.7341224,5.72330097 C35.090466,5.40139806 35.5578578,5.2032233 36.1363832,5.12860194 L37.7858158,4.91670874 Z M50.5846761,0.0886893204 L50.5846761,1.11905825 L47.7398121,1.11905825 L47.7398121,8.73786408 L46.5789234,8.73786408 L46.5789234,1.11905825 L43.7341446,1.11905825 L43.7341446,0.0886893204 L50.5846761,0.0886893204 Z M55.3260593,2.60571845 C55.7359654,2.81568932 56.0482991,3.08752427 56.2628047,3.42113592 C56.4697194,3.7391068 56.6076341,4.11002913 56.6766341,4.53399029 C56.7378727,4.82443689 56.7685773,5.28763107 56.7685773,5.92348544 L52.2570519,5.92348544 C52.2762423,6.56327184 52.4237095,7.07653398 52.6996242,7.46318447 C52.9754536,7.84974757 53.4026737,8.0431165 53.981199,8.0431165 C54.5214289,8.0431165 54.952487,7.86058252 55.274288,7.49551456 C55.4582596,7.28353398 55.5884981,7.03826214 55.665089,6.75952427 L56.6823486,6.75952427 C56.6555674,6.99116505 56.5664388,7.24919417 56.4151335,7.53378641 C56.2637429,7.81837864 56.0942707,8.05098058 55.9064611,8.23150485 C55.5923362,8.54554369 55.2034116,8.75752427 54.7398578,8.86735922 C54.4908096,8.93018447 54.2091805,8.96164078 53.8949703,8.96164078 C53.1287206,8.96164078 52.4793189,8.676 51.9467651,8.1048932 C51.4142114,7.53378641 51.1478492,6.73400971 51.1478492,5.70565049 C51.1478492,4.69293204 51.4160878,3.87061165 51.9524796,3.23860194 C52.4888714,2.60667961 53.1900445,2.29071845 54.0559135,2.29071845 C54.492686,2.29071845 54.916068,2.39566019 55.3260593,2.60571845 Z M55.7053461,5.08150485 C55.6632126,4.62224272 55.5654697,4.25525243 55.4122027,3.98053398 C55.1286972,3.47024272 54.6555056,3.21509709 53.9927132,3.21509709 C53.5176452,3.21509709 53.1191681,3.39072816 52.7972818,3.74207767 C52.4754808,4.09333981 52.3049852,4.53984466 52.2857948,5.08150485 L55.7053461,5.08150485 Z M62.1047763,2.76763107 C62.5395871,3.11303883 62.8010878,3.70773786 62.8892781,4.55164078 L61.8835328,4.55164078 C61.8222089,4.16306796 61.6823325,3.84020388 61.4639889,3.58304854 C61.24556,3.32598058 60.8950161,3.1974466 60.4122719,3.1974466 C59.7532324,3.1974466 59.2820025,3.52712621 58.9984116,4.18657282 C58.8145253,4.61446602 58.7225822,5.14240777 58.7225822,5.77039806 C58.7225822,6.40240777 58.8528208,6.93419417 59.1133832,7.36601942 C59.3739456,7.79775728 59.7838517,8.0136699 60.3432719,8.0136699 C60.7723684,8.0136699 61.1124215,7.87919417 61.3633461,7.6103301 C61.614356,7.34146602 61.7876663,6.97351456 61.8835328,6.50638835 L62.8892781,6.50638835 C62.7743066,7.34242718 62.4869629,7.95381553 62.0271619,8.34046602 C61.5673609,8.72702913 60.9792831,8.92039806 60.262843,8.92039806 C59.4582126,8.92039806 58.816487,8.6191165 58.3374957,8.01664078 C57.8585896,7.41407767 57.6190939,6.66139806 57.6190939,5.75860194 C57.6190939,4.65168932 57.881618,3.79013592 58.4064957,3.17385437 C58.9313733,2.55757282 59.5999654,2.24947573 60.4122719,2.24947573 C61.1056836,2.24947573 61.6698801,2.4222233 62.1047763,2.76763107 Z M63.9236811,0.0592427184 L64.9581693,0.0592427184 L64.9581693,3.28578641 C65.2033795,2.96781553 65.4236848,2.74403883 65.6190853,2.61454369 C65.9524858,2.39076699 66.3681916,2.27892233 66.8662027,2.27892233 C67.7589382,2.27892233 68.36433,2.59881553 68.682293,3.23860194 C68.8547503,3.58802913 68.940979,4.07271845 68.940979,4.69293204 L68.940979,8.73786408 L67.8777478,8.73786408 L67.8777478,4.76362136 C67.8777478,4.30042718 67.8202621,3.96087379 67.7052905,3.74496117 C67.5175661,3.3995534 67.1650606,3.2268932 66.6478591,3.2268932 C66.2187627,3.2268932 65.8298381,3.37797087 65.4811706,3.68021359 C65.1325031,3.98245631 64.9581693,4.55356311 64.9581693,5.39362136 L64.9581693,8.73786408 L63.9236811,8.73786408 L63.9236811,0.0592427184 Z" id="path-5"></path>
    </defs>
    <g id="Page-1" stroke="none" stroke-width="1" fill="none" fill-rule="evenodd">
        <g id="logo">
            <g id="Group-4">
                <mask id="mask-2" fill="white">
                    <use xlink:href="#path-1"></use>
                </mask>
                <g id="Clip-3"></g>
                <polygon id="Fill-2" fill="#0056A7" mask="url(#mask-2)" points="0.00514072874 39.9948718 35.9902419 39.9948718 35.9902419 -0.00512820513 0.00514072874 -0.00512820513"></polygon>
            </g>
            <g id="Group-7" transform="translate(42.000000, 6.000000)">
                <mask id="mask-4" fill="white">
                    <use xlink:href="#path-3"></use>
                </mask>
                <g id="Clip-6"></g>
                <polygon id="Fill-5" fill="#181818" mask="url(#mask-4)" points="0.0188943731 14.9844828 86.9604936 14.9844828 86.9604936 0.0568965517 0.0188943731 0.0568965517"></polygon>
            </g>
            <g id="Group-10" transform="translate(43.000000, 25.000000)">
                <mask id="mask-6" fill="white">
                    <use xlink:href="#path-5"></use>
                </mask>
                <g id="Clip-9"></g>
                <polygon id="Fill-8" fill="#000000" mask="url(#mask-6)" points="0.0597033375 8.96330097 68.9505315 8.96330097 68.9505315 0.0506796117 0.0597033375 0.0506796117"></polygon>
            </g>
        </g>
    </g>
</svg>