<?xml version="1.0" encoding="UTF-8"?>
<svg width="58px" height="64px" viewBox="0 0 58 64" version="1.1" xmlns="http://www.w3.org/2000/svg" xmlns:xlink="http://www.w3.org/1999/xlink">
    <!-- Generator: Sketch 51.1 (57501) - http://www.bohemiancoding.com/sketch -->
    <title>logo</title>
    <desc>Created with Sketch.</desc>
    <defs>
        <path d="M2.72028463e-09,19.792814 C0.132799653,16.7340845 1.8536365,13.9409216 4.5794757,12.4014532 L24.4080792,1.20261572 C27.247031,-0.400871907 30.7446527,-0.400871907 33.5836044,1.20261572 L53.4122079,12.4014532 C56.2511597,14.004804 57.9999705,16.9680557 57.9999705,20.1748942 L57.9999705,30.2787537 C55.3056251,25.2788648 47.4745103,22.2154977 36.7353864,22.7610719 C20.7796627,23.5710219 4.44674728,32.0417147 0.254683876,41.6795999 C0.163305563,41.8896385 0.0783694562,42.0984011 0,42.3060111 L2.72028516e-09,19.792814 Z M28.2207727,64 L27.164374,64 C26.981765,63.9936868 26.7831674,63.983685 26.5205466,63.9699107 C26.0405973,63.9292901 25.3993299,63.887165 24.9207617,63.8325939 C18.2829597,63.0639484 14.7046789,59.112399 16.7128695,54.0547933 C19.0771204,48.1003889 28.286898,42.8674445 37.2848075,42.366594 C46.2823025,41.8661538 51.6598061,46.2873702 49.2955553,52.2416378 C48.5471106,54.1261871 47.1123731,55.9389323 45.2164698,57.5519938 C44.6234045,58.0308245 43.8239954,58.6581869 43.2118702,59.1080224 C41.740256,60.093995 41.740256,60.093995 40.9440236,60.5477967 C39.4998942,61.3254691 39.4998942,61.3254691 38.7524164,61.6645211 C37.3435063,62.266718 37.3435063,62.266718 36.5772448,62.5377954 C35.8576662,62.7727657 34.518366,63.2091978 34.3513851,63.2091978 C32.8365409,63.5571398 32.7771515,63.5705432 31.9923827,63.6926785 C30.3561354,63.9085011 30.2923264,63.9172543 29.3945795,63.9675856 C29.6101769,63.9556866 29.8243931,63.9199897 30.0375044,63.8604949 C37.3701625,63.452511 44.875326,59.1880327 46.802167,54.335855 C48.7291461,49.4832671 44.3464841,45.8810275 37.0142404,46.2890114 C29.6815823,46.6971321 22.1760043,50.9616105 20.2493015,55.8137881 C18.3228749,60.6661025 22.7051225,64.2687524 30.0375044,63.8604949 C29.8245312,63.9199897 29.6101769,63.9556866 29.3948558,63.9675856 C28.88501,63.9824418 28.5137373,63.9932817 28.2207727,64 Z M5.97595543,57.1686285 C4.30227909,54.806753 4.16568346,54.6136342 3.25288209,52.907159 C2.00805251,50.5541736 1.90695241,47.752994 3.19335457,44.6927726 C7.09855333,35.399547 22.3137049,27.2317989 37.1773541,26.4508441 C49.2653081,25.8152755 57.3982039,30.2598795 57.9135106,36.9406676 C57.9445864,37.7436423 58.0048045,38.8134547 57.9996943,39.6164295 C57.9610221,40.348284 57.9343659,41.32564 57.8650323,42.0553062 C58.5841965,34.7667137 50.4499196,29.7357781 37.8845023,30.3961021 C23.5490046,31.1495662 8.87415847,39.0269522 5.10776518,47.989879 C3.62952142,51.5073215 4.05104809,54.6698466 5.97595543,57.1686285 Z M16.1094455,60.6529726 L15.8261719,60.5223576 C13.7108041,59.4466641 13.3298832,59.2528615 11.5679514,58.0741805 C8.36202842,55.8535881 7.22465223,52.581784 8.92553721,48.8162414 C12.2634981,41.4261657 25.2681207,34.9316579 37.9728959,34.3104501 C50.515386,33.6971749 58.0756575,39.0366628 55.0545322,46.2834039 L54.7356249,47.0211395 C53.6077786,49.2868658 53.5398261,49.4225414 52.6507805,50.7805274 C53.0043546,50.2532803 53.3050308,49.7185109 53.549356,49.1782707 C56.5743485,42.4809335 49.6929118,37.5078514 38.1779965,38.0709322 C26.6639099,38.6342864 14.8771844,44.5201693 11.8517776,51.2179168 C10.0165068,55.2816173 11.828298,58.7107065 16.1094455,60.6529726 Z M33.6037692,59.0377228 C36.2927281,58.9073813 39.0463249,57.544198 39.7526445,55.9929564 C40.4591022,54.441578 38.8518591,53.2902509 36.1624858,53.4207292 C33.4729744,53.5513442 30.719792,54.9143907 30.0133343,56.4657691 C29.3068766,58.0166004 30.9141196,59.1683378 33.6037692,59.0377228 C33.180447,59.6473052 32.7415179,60.1570458 32.2905727,60.5699534 C27.3655335,60.8090268 24.4218907,58.7000385 25.7160273,55.8591956 C27.010302,53.0184895 32.0516339,50.521896 36.9766731,50.2829594 C41.9018504,50.044433 44.8456313,52.1532846 43.5513566,54.9939907 C42.2576344,57.8348335 37.21575,60.3311536 32.2905727,60.5699534 C32.7415179,60.1570458 33.1807232,59.6473052 33.6037692,59.0377228 Z" id="path-1"></path>
    </defs>
    <g id="Page-1" stroke="none" stroke-width="1" fill="none" fill-rule="evenodd">
        <g id="about-us" transform="translate(-44.000000, -8.000000)">
            <g id="navigation---dark">
                <g id="logo" transform="translate(44.000000, 8.000000)">
                    <mask id="mask-2" fill="white">
                        <use xlink:href="#path-1"></use>
                    </mask>
                    <use id="Clip-3" fill="#0052A7" xlink:href="#path-1"></use>
                    <polygon id="Fill-2" fill="#0052A7" mask="url(#mask-2)" points="0 64 58 64 58 0 0 0"></polygon>
                </g>
            </g>
        </g>
    </g>
</svg>