<?xml version="1.0" encoding="UTF-8"?>
<svg width="32px" height="32px" viewBox="0 0 32 32" version="1.1" xmlns="http://www.w3.org/2000/svg" xmlns:xlink="http://www.w3.org/1999/xlink">
    <!-- Generator: Sketch 51.1 (57501) - http://www.bohemiancoding.com/sketch -->
    <title>Combined Shape</title>
    <desc>Created with Sketch.</desc>
    <defs></defs>
    <g id="Page-1" stroke="none" stroke-width="1" fill="none" fill-rule="evenodd">
        <g id="about-us" transform="translate(-766.000000, -573.000000)" fill="#FFFFFF" fill-rule="nonzero">
            <g id="Group" transform="translate(755.000000, 194.000000)">
                <g id="button" transform="translate(0.000000, 368.000000)">
                    <path d="M26.9999994,11 C35.8271252,11 43,18.1729106 43,27.0000151 C43,35.8270894 35.8271252,43 26.9999994,43 C18.172964,43 11,35.8270894 11,27.0000151 C11,18.1729106 18.172964,11 26.9999994,11 Z M27.4910153,19.0000565 L27.4939008,19.0000872 C27.2785424,19.0042599 27.0736664,19.0937829 26.9243579,19.2489558 C26.7750495,19.4041287 26.6935436,19.6122358 26.6977764,19.8274811 L26.6977764,29.2280454 L22.3939242,24.9311546 C22.2410621,24.7740997 22.0311593,24.6854919 21.8119362,24.685476 C21.4806974,24.6855213 21.1826891,24.8866508 21.0588817,25.1937219 C20.9350742,25.500793 21.0102882,25.8522448 21.2489443,26.081826 L26.9362176,31.7608352 C27.0886172,31.9139281 27.29578,32 27.5118528,32 C27.7279257,32 27.9350884,31.9139281 28.0874881,31.7608352 L33.7631609,26.081826 C34.0798203,25.7633537 34.0788164,25.2487945 33.7609165,24.931559 C33.4430167,24.6143236 32.9281887,24.614129 32.6100488,24.931124 L28.3124568,29.2264505 L28.3124568,19.8274505 C28.3167496,19.6078346 28.2317943,19.3958583 28.0769945,19.2399368 C27.9221948,19.0840153 27.7107721,18.997466 27.4910153,19.0000565 Z M21.7972587,33 C21.3541492,33.0119087 21.0000003,33.4561167 21,33.9999994 C20.9999997,34.5438821 21.3541483,34.9880907 21.7972578,35 L33.2027418,35 C33.6458513,34.988091 34,34.5438827 34,34 C34,33.4561173 33.6458513,33.011909 33.2027418,33 L21.7972587,33 Z" id="Combined-Shape"></path>
                </g>
            </g>
        </g>
    </g>
</svg>