<?xml version="1.0" encoding="UTF-8"?>
<svg width="12px" height="11px" viewBox="0 0 12 11" version="1.1" xmlns="http://www.w3.org/2000/svg" xmlns:xlink="http://www.w3.org/1999/xlink">
    <!-- Generator: Sketch 51.1 (57501) - http://www.bohemiancoding.com/sketch -->
    <title>Shape</title>
    <desc>Created with Sketch.</desc>
    <defs></defs>
    <g id="Page-1" stroke="none" stroke-width="1" fill="none" fill-rule="evenodd" opacity="0.539999962">
        <g id="contact-us" transform="translate(-749.000000, -626.000000)" fill="#1A1A1A" fill-rule="nonzero">
            <g id="Group-2" transform="translate(743.000000, 264.000000)">
                <g id="Group" transform="translate(0.000000, 225.000000)">
                    <g id="Group-9" transform="translate(0.000000, 131.000000)">
                        <g id="Group-12">
                            <path d="M17.4787895,9.36982732 L12.5212105,6.14004301 C12.2346316,5.953319 11.7655263,5.953319 11.4787895,6.14004301 L6.52121053,9.36982732 C6.23447368,9.55655134 6,9.97991272 6,10.3106638 L6,16.1739784 C6,16.5048798 6.28421053,16.8 6.63157895,16.8 L17.3684211,16.8 C17.7157895,16.8 18,16.5048798 18,16.1739784 L18,10.3106638 C18,9.97991272 17.7655263,9.55655134 17.4787895,9.36982732 Z M16.1529531,10.2154651 L11.9835075,13.4687573 C11.7826704,13.6258315 11.52208,13.7142857 11.2500219,13.7142857 C10.9779638,13.7142857 10.7175243,13.6327095 10.5166872,13.4759552 L6.34724158,10.2329 C5.93560842,9.91203353 5.98585543,9.60364338 6.02659625,9.47232164 C6.06733707,9.34099991 6.21687096,9.08571429 6.72764011,9.08571429 L15.7722528,9.08571429 C16.2830219,9.08571429 16.4328576,9.34147977 16.4732966,9.4728015 C16.5141884,9.60412324 16.5644354,9.89459861 16.1529531,10.2154651 Z" id="Shape"></path>
                        </g>
                    </g>
                </g>
            </g>
        </g>
    </g>
</svg>