<?xml version="1.0" encoding="UTF-8"?>
<svg width="48px" height="48px" viewBox="0 0 48 48" version="1.1" xmlns="http://www.w3.org/2000/svg" xmlns:xlink="http://www.w3.org/1999/xlink">
    <!-- Generator: Sketch 51.1 (57501) - http://www.bohemiancoding.com/sketch -->
    <title>mission-flat</title>
    <desc>Created with Sketch.</desc>
    <defs></defs>
    <g id="Page-1" stroke="none" stroke-width="1" fill="none" fill-rule="evenodd">
        <g id="about-us" transform="translate(-616.000000, -751.000000)" fill="#FFFFFF" fill-rule="nonzero">
            <g id="mission-flat" transform="translate(616.000000, 751.000000)">
                <path d="M46.1358689,11.256 L0.49652459,29.656 C0.22347541,29.7664 0.0338360656,30.0216 0.00393442623,30.3184 C-0.0259672131,30.6152 0.109377049,30.904 0.354885246,31.0688 L8.96183607,36.8112 L14.2473443,47.5584 C14.2528525,47.5704 14.2622951,47.5784 14.2685902,47.5896 C14.2866885,47.6224 14.3087213,47.652 14.331541,47.6816 C14.3535738,47.7112 14.3756066,47.7408 14.4015738,47.7664 C14.4259672,47.7912 14.4535082,47.8112 14.4810492,47.8328 C14.5117377,47.8568 14.5424262,47.8792 14.5754754,47.8984 C14.5864918,47.9048 14.5943607,47.9136 14.605377,47.9192 C14.6163934,47.9248 14.6289836,47.9224 14.6407869,47.9272 C14.7383607,47.9704 14.8414426,48 14.9508197,48 C15.010623,48 15.0712131,47.9928 15.1318033,47.9792 C15.1443934,47.976 15.154623,47.968 15.1664262,47.964 C15.208918,47.9512 15.2474754,47.9312 15.2876066,47.9112 C15.3277377,47.8912 15.3678689,47.8736 15.4032787,47.848 C15.4127213,47.8408 15.4237377,47.8392 15.4331803,47.8312 L20.0301639,44.196 L25.5352131,47.8688 C25.6650492,47.9552 25.8153443,48 25.9672131,48 C26.0270164,48 26.0860328,47.9928 26.1450492,47.9792 C26.3551475,47.9296 26.5353443,47.796 26.6447213,47.6072 L47.1037377,12.4072 C47.2752787,12.1128 47.2430164,11.74 47.0242623,11.4808 C46.8055082,11.22 46.4490492,11.1288 46.1358689,11.256 Z M11.5805902,38.5584 L14.1639344,40.2816 L14.1639344,43.8104 L11.5805902,38.5584 Z M15.7377049,45.564 L15.7377049,41.332 L18.6405246,43.2688 L15.7377049,45.564 Z M25.7091148,46.0712 L20.4251803,42.5456 C20.4243934,42.5456 20.4243934,42.5448 20.4243934,42.5448 L16.3451803,39.8232 L40.6497049,18.2024 L39.613377,16.9976 L14.9791475,38.912 L10.8125902,36.132 L27.9281311,26.296 L27.1538361,24.904 L9.33245902,35.1448 L2.48498361,30.576 L44.5794098,13.6056 L25.7091148,46.0712 Z" id="Shape"></path>
                <path d="M1.57377049,24.0016 C1.57377049,24.5544 1.59344262,25.1128 1.63278689,25.6584 L3.20262295,25.5416 C3.16563934,25.0344 3.14754098,24.5168 3.14754098,24.0016 L1.57377049,24.0016 Z" id="Shape"></path>
                <path d="M4.03278689,17.9304 L2.52747541,17.4632 C2.37009836,17.9872 2.23003279,18.5264 2.11042623,19.0664 L3.64563934,19.4176 C3.75659016,18.9168 3.88642623,18.4168 4.03278689,17.9304 Z" id="Shape"></path>
                <path d="M5.12891803,15.0592 L3.70859016,14.3688 C3.47567213,14.8648 3.25770492,15.3784 3.06098361,15.8936 L4.5277377,16.472 C4.71029508,15.9944 4.91252459,15.5184 5.12891803,15.0592 Z" id="Shape"></path>
                <path d="M37.1708852,8.428 C37.5446557,8.7656 37.9137049,9.1232 38.2678033,9.4928 L39.3954098,8.376 C39.0145574,7.9792 38.6179672,7.5936 38.215082,7.2312 L37.1708852,8.428 Z" id="Shape"></path>
                <path d="M8.50622951,9.9656 L7.34557377,8.884 C6.98203279,9.288 6.62557377,9.7136 6.28878689,10.1496 L7.52577049,11.1384 C7.83895082,10.7344 8.16865574,10.34 8.50622951,9.9656 Z" id="Shape"></path>
                <path d="M6.63265574,12.3832 L5.32721311,11.4896 C5.02268852,11.9496 4.73311475,12.424 4.46557377,12.8992 L5.83160656,13.6928 C6.0802623,13.2512 6.34937705,12.8112 6.63265574,12.3832 Z" id="Shape"></path>
                <path d="M10.7087213,7.852 L9.71567213,6.6112 C9.29547541,6.9584 8.88236066,7.3264 8.48891803,7.7032 L9.56931148,8.8672 C9.93521311,8.5168 10.3184262,8.176 10.7087213,7.852 Z" id="Shape"></path>
                <path d="M1.81140984,20.6984 C1.73193443,21.2432 1.67213115,21.7968 1.63278689,22.3456 L3.20262295,22.4624 C3.23881967,21.952 3.29468852,21.4376 3.36786885,20.9312 L1.81140984,20.6984 Z" id="Shape"></path>
                <path d="M30.7097705,4.4872 L31.2574426,2.9872 C30.7514754,2.7968 30.2289836,2.6216 29.704918,2.4696 L29.2705574,4.0072 C29.7568525,4.1496 30.2415738,4.3104 30.7097705,4.4872 Z" id="Shape"></path>
                <path d="M26.3047869,3.3792 C26.797377,3.4456 27.3009836,3.532 27.8006557,3.6368 L28.1185574,2.0696 C27.5819016,1.9568 27.0405246,1.864 26.5109508,1.7928 L26.3047869,3.3792 Z" id="Shape"></path>
                <path d="M41.3547541,10.724 C41.0777705,10.3432 40.7889836,9.9704 40.4891803,9.6072 L39.2836721,10.6352 C39.5622295,10.9736 39.8313443,11.32 40.0886557,11.676 L41.3547541,10.724 Z" id="Shape"></path>
                <path d="M33.4638689,5.7688 L34.2232131,4.3672 C33.7502951,4.1024 33.2600656,3.8512 32.7651148,3.6208 L32.1096393,5.0752 C32.5691803,5.2896 33.0247869,5.5224 33.4638689,5.7688 Z" id="Shape"></path>
                <path d="M36.0015738,7.4504 L36.9560656,6.1784 C36.5248525,5.844 36.0763279,5.5224 35.623082,5.2216 L34.7638033,6.5624 C35.1847869,6.8408 35.6010492,7.14 36.0015738,7.4504 Z" id="Shape"></path>
                <path d="M11.9189508,6.9264 C12.3328525,6.6328 12.7617049,6.352 13.1921311,6.0928 L12.3895082,4.716 C11.9260328,4.9952 11.4641311,5.2976 11.0179672,5.6136 L11.9189508,6.9264 Z" id="Shape"></path>
                <path d="M21.6283279,1.6888 C21.0885246,1.7384 20.544,1.808 20.0104918,1.8976 L20.2654426,3.476 C20.7611803,3.3928 21.2663607,3.328 21.7683934,3.2832 L21.6283279,1.6888 Z" id="Shape"></path>
                <path d="M18.781377,3.7824 L18.411541,2.228 C17.8851148,2.3568 17.3571148,2.508 16.8417049,2.6768 L17.3232787,4.2 C17.8017049,4.0424 18.2927213,3.9024 18.781377,3.7824 Z" id="Shape"></path>
                <path d="M23.28,3.2024 L23.6065574,3.2 C24.0055082,3.2 24.4020984,3.2112 24.7963279,3.2344 L24.8876066,1.6376 C24.4634754,1.6128 24.0361967,1.6 23.6065574,1.6 L23.2587541,1.6024 L23.28,3.2024 Z" id="Shape"></path>
                <path d="M15.901377,4.724 L15.3072787,3.2424 C14.8083934,3.4488 14.3087213,3.6784 13.8224262,3.924 L14.5219672,5.3568 C14.9728525,5.1296 15.4379016,4.9168 15.901377,4.724 Z" id="Shape"></path>
                <path d="M37.645377,39.1312 L38.7249836,40.2952 C39.1176393,39.9192 39.5024262,39.5216 39.8699016,39.1128 L38.7076721,38.0328 C38.3669508,38.4136 38.0097049,38.7824 37.645377,39.1312 Z" id="Shape"></path>
                <path d="M39.688918,36.8576 L40.923541,37.8496 C41.2571803,37.4192 41.581377,36.968 41.8859016,36.508 L40.5812459,35.6144 C40.2987541,36.0416 39.9981639,36.4592 39.688918,36.8576 Z" id="Shape"></path>
                <path d="M43.5674754,28.5848 L45.1026885,28.936 C45.2215082,28.3992 45.3214426,27.8512 45.400918,27.3048 L43.8436721,27.0704 C43.7704918,27.5784 43.6768525,28.0872 43.5674754,28.5848 Z" id="Shape"></path>
                <path d="M32.6895738,42.6432 L33.3906885,44.076 C33.8785574,43.8288 34.3601311,43.5624 34.8236066,43.284 L34.0217705,41.9072 C33.5905574,42.1664 33.1428197,42.4144 32.6895738,42.6432 Z" id="Shape"></path>
                <path d="M35.2949508,41.0736 L36.1959344,42.3864 C36.6405246,42.0704 37.0788197,41.7352 37.4982295,41.3888 L36.5051803,40.1464 C36.1148852,40.4688 35.7080656,40.7808 35.2949508,41.0736 Z" id="Shape"></path>
                <path d="M44.0104918,25.5392 L45.5803279,25.656 C45.6196721,25.1104 45.6393443,24.5528 45.6393443,24 L44.0655738,24 C44.0655738,24.5144 44.0474754,25.032 44.0104918,25.5392 Z" id="Shape"></path>
                <path d="M42.6845902,31.5288 L44.1513443,32.1072 C44.3480656,31.5928 44.5274754,31.0656 44.6848525,30.54 L43.179541,30.0728 C43.0331803,30.5608 42.8671475,31.0504 42.6845902,31.5288 Z" id="Shape"></path>
                <path d="M41.3822951,34.3072 L42.7483279,35.1008 C43.0182295,34.6192 43.2731803,34.1248 43.5045246,33.6312 L42.0834098,32.9424 C41.8685902,33.4016 41.6333115,33.8608 41.3822951,34.3072 Z" id="Shape"></path>
                <path d="M46.4262295,3.2 C45.1247213,3.2 44.0655738,2.1232 44.0655738,0.8 C44.0655738,0.3576 43.7130492,0 43.2786885,0 C42.8443279,0 42.4918033,0.3576 42.4918033,0.8 C42.4918033,2.1232 41.4326557,3.2 40.1311475,3.2 C39.6967869,3.2 39.3442623,3.5576 39.3442623,4 C39.3442623,4.4424 39.6967869,4.8 40.1311475,4.8 C41.4326557,4.8 42.4918033,5.8768 42.4918033,7.2 C42.4918033,7.6424 42.8443279,8 43.2786885,8 C43.7130492,8 44.0655738,7.6424 44.0655738,7.2 C44.0655738,5.8768 45.1247213,4.8 46.4262295,4.8 C46.8605902,4.8 47.2131148,4.4424 47.2131148,4 C47.2131148,3.5576 46.8605902,3.2 46.4262295,3.2 Z M43.2786885,4.8024 C43.0544262,4.4984 42.7876721,4.228 42.4894426,4 C42.7876721,3.772 43.0544262,3.5016 43.2786885,3.1976 C43.5029508,3.5016 43.7697049,3.772 44.0679344,4 C43.7697049,4.228 43.5029508,4.4984 43.2786885,4.8024 Z" id="Shape"></path>
                <path d="M13.3770492,16.8 C13.3770492,17.2424 13.7295738,17.6 14.1639344,17.6 C15.4654426,17.6 16.5245902,18.6768 16.5245902,20 C16.5245902,20.4424 16.8771148,20.8 17.3114754,20.8 C17.7458361,20.8 18.0983607,20.4424 18.0983607,20 C18.0983607,18.6768 19.1575082,17.6 20.4590164,17.6 C20.893377,17.6 21.2459016,17.2424 21.2459016,16.8 C21.2459016,16.3576 20.893377,16 20.4590164,16 C19.1575082,16 18.0983607,14.9232 18.0983607,13.6 C18.0983607,13.1576 17.7458361,12.8 17.3114754,12.8 C16.8771148,12.8 16.5245902,13.1576 16.5245902,13.6 C16.5245902,14.9232 15.4654426,16 14.1639344,16 C13.7295738,16 13.3770492,16.3576 13.3770492,16.8 Z M17.3114754,15.9976 C17.5357377,16.3016 17.8024918,16.572 18.1007213,16.8 C17.8024918,17.028 17.5357377,17.2984 17.3114754,17.6024 C17.0872131,17.2984 16.820459,17.028 16.5222295,16.8 C16.820459,16.572 17.0872131,16.3016 17.3114754,15.9976 Z" id="Shape"></path>
            </g>
        </g>
    </g>
</svg>