<?xml version="1.0" encoding="UTF-8"?>
<svg width="16px" height="16px" viewBox="0 0 16 16" version="1.1" xmlns="http://www.w3.org/2000/svg" xmlns:xlink="http://www.w3.org/1999/xlink">
    <!-- Generator: Sketch 51.1 (57501) - http://www.bohemiancoding.com/sketch -->
    <title>Shape</title>
    <desc>Created with Sketch.</desc>
    <defs></defs>
    <g id="Page-1" stroke="none" stroke-width="1" fill="none" fill-rule="evenodd">
        <g id="home" transform="translate(-657.000000, -42.000000)" fill="#FFFFFF">
            <g id="navigation" transform="translate(657.000000, 32.000000)">
                <path d="M7.25420267,10.0005049 C5.39598539,10.0005049 3.53021394,10.7111536 2.11568747,12.126066 C-0.705765412,14.948226 -0.70469285,19.5533848 2.11568747,22.3835686 C5.67557328,25.7561956 9.61578427,24.6985307 11.9484601,22.7835037 L14.978067,25.8146821 C15.1926573,26.0524767 15.6102084,26.0631577 15.8366964,25.836628 C16.0631624,25.6101199 16.0524748,25.1924551 15.8146629,24.9777956 L12.7776398,21.939201 C15.1911107,19.0907686 15.0634214,14.8050606 12.3777862,12.126066 C10.6769453,10.4506152 8.95643811,9.98232546 7.25420267,10.0005049 Z M7.24685564,11.178079 C8.79925303,11.178079 10.3576723,11.7751925 11.5413053,12.9629589 C13.9162327,15.3308292 13.9172975,19.1700335 11.5413053,21.5466821 C9.17484373,23.9137307 5.33556895,23.9139686 2.95979125,21.5466821 C0.305383379,18.6481113 1.15477332,14.8710584 2.95979125,12.9629589 C4.14781415,11.7746433 5.69445825,11.1781114 7.24685564,11.178079 Z" id="Shape"></path>
            </g>
        </g>
    </g>
</svg>