<?xml version="1.0" encoding="UTF-8"?>
<svg width="16px" height="16px" viewBox="0 0 16 16" version="1.1" xmlns="http://www.w3.org/2000/svg" xmlns:xlink="http://www.w3.org/1999/xlink">
    <!-- Generator: Sketch 51.1 (57501) - http://www.bohemiancoding.com/sketch -->
    <title>Shape</title>
    <desc>Created with Sketch.</desc>
    <defs></defs>
    <g id="Page-1" stroke="none" stroke-width="1" fill="none" fill-rule="evenodd">
        <g id="products" transform="translate(-871.000000, -112.000000)" fill="#333333">
            <g id="Group-2" transform="translate(855.000000, 100.000000)">
                <g id="Group" transform="translate(12.000000, 8.000000)">
                    <path d="M11.2542027,4.00050492 C9.39598539,4.00050492 7.53021394,4.71115394 6.11568747,6.12606711 C3.29423459,8.94822857 3.29530715,13.5533899 6.11568747,16.3835751 C9.67557328,19.7562039 13.6157843,18.6985385 15.9484601,16.7835105 L18.978067,19.8146904 C19.1926573,20.0524851 19.6102084,20.0631662 19.8366964,19.8366364 C20.0631624,19.6101282 20.0524748,19.1924631 19.8146629,18.9778035 L16.7776398,15.9392073 C19.1911107,13.0907734 19.0634214,8.80506309 16.3777862,6.12606711 C14.6769453,4.45061543 12.9564381,3.98232545 11.2542027,4.00050492 Z M11.2468556,5.17807959 C12.799253,5.17807959 14.3576723,5.77519341 15.5413053,6.96296051 C17.9162327,9.33083201 17.9172975,13.1700383 15.5413053,15.5466882 C13.1748437,17.9137381 9.33556895,17.9139759 6.95979125,15.5466882 C4.30538338,12.6481159 5.15477332,8.87106096 6.95979125,6.96296051 C8.14781415,5.77464422 9.69445825,5.17811202 11.2468556,5.17807959 Z" id="Shape"></path>
                </g>
            </g>
        </g>
    </g>
</svg>