<?xml version="1.0" encoding="UTF-8"?>
<svg width="48px" height="46px" viewBox="0 0 48 46" version="1.1" xmlns="http://www.w3.org/2000/svg" xmlns:xlink="http://www.w3.org/1999/xlink">
    <!-- Generator: Sketch 51.1 (57501) - http://www.bohemiancoding.com/sketch -->
    <title>value-flat</title>
    <desc>Created with Sketch.</desc>
    <defs></defs>
    <g id="Page-1" stroke="none" stroke-width="1" fill="none" fill-rule="evenodd">
        <g id="about-us" transform="translate(-1016.000000, -753.000000)" fill="#FFFFFF" fill-rule="nonzero">
            <g id="value-flat" transform="translate(1016.000000, 753.000000)">
                <path d="M48,44.8564769 C47.9998381,44.2249945 47.4948661,43.713118 46.8719016,43.7129538 L2.25619679,43.7129538 L2.25619679,25.1098611 L5.89314088,25.1098611 C6.51617242,25.1098611 7.02123927,24.5978884 7.02123927,23.966338 C7.02123927,23.3347876 6.51617242,22.8228149 5.89314088,22.8228149 L2.25619679,22.8228149 L2.25619679,19.3133273 L5.89314088,19.3133273 C6.51617242,19.3133273 7.02123927,18.8013546 7.02123927,18.1698042 C7.02123927,17.5382539 6.51617242,17.0262811 5.89314088,17.0262811 L2.25619679,17.0262811 L2.25619679,13.5175406 L5.89314088,13.5175406 C6.51617242,13.5175406 7.02123927,13.0055679 7.02123927,12.3740176 C7.02123927,11.7424672 6.51617242,11.2304945 5.89314088,11.2304945 L2.25619679,11.2304945 L2.25619679,7.72100688 L5.89314088,7.72100688 C6.51617242,7.72100688 7.02123927,7.20903416 7.02123927,6.5774838 C7.02123927,5.94593344 6.51617242,5.43396071 5.89314088,5.43396071 L2.25619679,5.43396071 L2.25619679,1.14352309 C2.25619679,0.511972724 1.75112993,0 1.12809839,0 C0.505066854,0 0,0.511972724 0,1.14352309 L0,44.8564769 C0.000161907624,45.4879593 0.505133931,45.9998359 1.12809839,46 L46.8719016,46 C47.4948661,45.9998359 47.9998381,45.4879593 48,44.8564769 Z" id="Shape"></path>
                <path d="M5.47427278,41.7871895 C5.98344619,42.1537823 6.69084078,42.0349315 7.05468227,41.5216617 L10.9791653,35.9843979 C12.4039887,36.6986649 14.0938995,36.6180778 15.4455428,35.7714088 C16.7971861,34.9247399 17.61788,33.4326849 17.6146091,31.8279579 C17.6146091,31.7378188 17.6063021,31.6497741 17.6011971,31.5608916 L27.8632825,28.2287052 C28.792358,29.7375532 30.4945148,30.5784257 32.246046,30.3938086 C33.9975772,30.2091915 35.4905667,29.0315402 36.0902395,27.3615573 C36.6899124,25.6915743 36.290847,23.8228398 35.0627143,22.5498845 L41.7777385,9.26306683 C44.0829879,9.57297845 46.2563861,8.10342398 46.8477017,5.834985 C47.4390173,3.56654603 46.2632402,1.20896821 44.1049249,0.335379628 C41.9466096,-0.538208952 39.4810463,0.345518745 38.353418,2.39688256 C37.2257898,4.44824638 37.7889071,7.0254188 39.6670218,8.40874404 L33.1288523,21.3455308 C31.7321226,20.9082496 30.2124651,21.1664915 29.0349284,22.0412287 C27.8573916,22.9159659 27.1621539,24.3030664 27.1619733,25.7780471 C27.1619733,25.8703722 27.1704086,25.9605494 27.17571,26.0515721 L16.9168794,29.3827303 C16.0358151,27.9456324 14.4492688,27.1058131 12.7760831,27.1908495 C11.1028975,27.2758859 9.60809907,28.2723085 8.87474379,29.7914561 C8.14138851,31.3106037 8.28563718,33.1118489 9.25122467,34.4926042 L5.21095805,40.1932685 C4.84753335,40.7068173 4.9653871,41.4202204 5.47427278,41.7871895 Z M42.3768799,2.30950234 C43.6671959,2.30951496 44.7131939,3.36447485 44.7131827,4.66582213 C44.7131716,5.96716941 43.6671556,7.02211112 42.3768396,7.0221013 C41.0865237,7.02209149 40.0405235,5.96713387 40.0405318,4.66578659 C40.0419137,3.36500959 41.0871294,2.31087501 42.3768799,2.30950234 Z M31.763094,23.4217401 C33.0532065,23.421534 34.099215,24.476151 34.0994194,25.7772931 C34.0996238,27.0784352 33.0539466,28.1333864 31.763834,28.1335926 C30.4737215,28.1337987 29.427713,27.0791817 29.4275086,25.7780395 C29.4288813,24.4775565 30.4736355,23.4235365 31.763094,23.4217401 Z M13.0127559,29.4716585 C14.3027721,29.4718646 15.3484093,30.5266641 15.3483412,31.8277091 C15.3482731,33.1287541 14.3025254,34.1834423 13.0125092,34.183511 C11.7224929,34.1835797 10.6766348,33.1290029 10.6764304,31.8279579 C10.6778039,30.5271839 11.7230083,29.4730437 13.0127559,29.4716585 Z" id="Shape"></path>
            </g>
        </g>
    </g>
</svg>