<?xml version="1.0" encoding="UTF-8"?>
<svg width="64px" height="64px" viewBox="0 0 64 64" version="1.1" xmlns="http://www.w3.org/2000/svg" xmlns:xlink="http://www.w3.org/1999/xlink">
    <!-- Generator: Sketch 51.1 (57501) - http://www.bohemiancoding.com/sketch -->
    <title>Artboard</title>
    <desc>Created with Sketch.</desc>
    <defs></defs>
    <g id="Artboard" stroke="none" stroke-width="1" fill="none" fill-rule="evenodd">
        <g id="vision" transform="translate(8.000000, 8.000000)" fill-rule="nonzero">
            <path d="M9.444,18.2085714 C10.5188571,16.6817143 11.8542857,15.3862857 13.4125714,14.3571429 C13.8074286,14.096 13.916,13.564 13.6554286,13.1691429 C13.3948571,12.7748571 12.8628571,12.6657143 12.468,12.9262857 C10.7297143,14.0737143 9.24114286,15.5188571 8.04228571,17.2222857 C7.76971429,17.6091429 7.86285714,18.1434286 8.24971429,18.4165714 C8.4,18.5222857 8.57142857,18.5725714 8.74228571,18.5725714 C9.012,18.5725714 9.27714286,18.4457143 9.444,18.2085714 Z" id="Shape" fill="#4783C0"></path>
            <path d="M40.6931429,20.0754286 C40.22,20.5485714 39.6462857,20.9577143 39.0211429,21.2845714 C39.5577143,23.0034286 39.8468571,24.8302857 39.8468571,26.724 C39.8468571,29.2571429 39.3285714,31.6702857 38.3937143,33.8657143 L37.5234286,33.4068571 C37.3137143,33.2977143 37.0548571,33.3765714 36.944,33.5862857 C36.8337143,33.7954286 36.9137143,34.0548571 37.1234286,34.1651429 L38.0394286,34.648 C37.7331429,35.2822857 37.3868571,35.8942857 37.0114286,36.4857143 L35.1045714,35.044 C34.916,34.9011429 34.6468571,34.9382857 34.504,35.1274286 C34.3611429,35.316 34.3988571,35.5845714 34.5874286,35.7274286 L36.5348571,37.2 C36.1708571,37.7177143 35.7822857,38.2148571 35.3685714,38.6914286 L34.452,37.8737143 C34.2742857,37.716 34.0034286,37.732 33.8468571,37.9085714 C33.6891429,38.0851429 33.704,38.356 33.8811429,38.5137143 L34.7914286,39.3262857 C34.3268571,39.8137143 33.8382857,40.276 33.3234286,40.7097143 L31.8388571,38.9605714 C31.6851429,38.7805714 31.4154286,38.7582857 31.2348571,38.9114286 C31.0542857,39.0645714 31.0325714,39.3348571 31.1851429,39.5154286 L32.6537143,41.2462857 C32.116,41.6594286 31.5542857,42.044 30.9714286,42.3954286 L30.0857143,40.8297143 C29.9685714,40.6234286 29.7074286,40.552 29.5017143,40.6674286 C29.296,40.784 29.2234286,41.0457143 29.34,41.2514286 L30.228,42.8211429 C29.6222857,43.1485714 28.9948571,43.4394286 28.3502857,43.6977143 L27.7634286,41.8771429 C27.6902857,41.652 27.4502857,41.5297143 27.224,41.6011429 C26.9982857,41.6737143 26.8754286,41.9154286 26.948,42.1405714 L27.5474286,43.9982857 C26.8651429,44.2354286 26.1651429,44.4342857 25.4491429,44.5897143 L25.2377143,43.6651429 C25.1857143,43.4342857 24.956,43.2897143 24.7251429,43.3428571 C24.4942857,43.3954286 24.3502857,43.6251429 24.4028571,43.856 L24.6074286,44.7514286 C23.6165714,44.9182857 22.5994286,45.0097143 21.5617143,45.0097143 C11.4788571,45.0097143 3.276,36.8068571 3.276,26.7234286 C3.276,16.6405714 11.4788571,8.43828571 21.5617143,8.43828571 C23.1874286,8.43828571 24.7622857,8.65428571 26.2634286,9.05371429 C26.6137143,8.29085714 27.0788571,7.58628571 27.6394286,7.02457143 L28.0605714,6.60342857 C26.0125714,5.94228571 23.8302857,5.58114286 21.5617143,5.58114286 C9.88628571,5.58114286 0.418857143,15.0474286 0.418857143,26.7234286 C0.418857143,38.4005714 9.88628571,47.8668571 21.5617143,47.8668571 C33.2388571,47.8668571 42.7045714,38.4005714 42.7045714,26.7234286 C42.7045714,24.14 42.2394286,21.6651429 41.3908571,19.3771429 L40.6931429,20.0754286 Z" id="Shape" fill="#4884C1"></path>
            <path d="M47.4782857,7.72628571 C47.228,7.024 46.5657143,6.55257143 45.7085714,6.46742857 L41.6571429,6.088 L41.2485714,2.00457143 C41.1194286,0.718857143 40.196,0.133142857 39.3925714,0.133142857 C39.0177143,0.133142857 38.4525714,0.250285714 37.8948571,0.808571429 L29.6594286,9.04514286 C28.9491429,9.756 28.4331429,11.0011429 28.4331429,12.0062857 L28.4331429,16.7102857 C28.4331429,16.9748571 28.4851429,17.2251429 28.56,17.4657143 L24.388,21.7622857 C23.5537143,21.2857143 22.5902857,21.0102857 21.5611429,21.0102857 C18.4051429,21.0102857 15.8468571,23.5691429 15.8468571,26.7245714 C15.8468571,29.8794286 18.4051429,32.4388571 21.5611429,32.4388571 C24.716,32.4388571 27.2754286,29.8794286 27.2754286,26.7245714 C27.2754286,25.6354286 26.9651429,24.6211429 26.436,23.7548571 L30.7994286,19.2617143 C30.8685714,19.2674286 30.9342857,19.2822857 31.0045714,19.2822857 L35.7108571,19.2822857 C36.716,19.2822857 37.9611429,18.7662857 38.6725714,18.056 L46.9057143,9.82114286 C47.5154286,9.21142857 47.7285714,8.42857143 47.4782857,7.72628571 Z M31.2908571,12.0062857 C31.2908571,11.7537143 31.5022857,11.2434286 31.6811429,11.0651429 L38.5931429,4.15257143 L38.8148571,6.37257143 C38.8297143,6.52514286 38.8611429,6.67314286 38.9005714,6.81771429 L31.2908571,14.6542857 L31.2908571,12.0062857 Z M36.6525714,16.0354286 C36.4777143,16.2102857 35.9588571,16.4251429 35.712,16.4251429 L33.5542857,16.4251429 L40.9354286,8.82285714 C41.0691429,8.85828571 41.2051429,8.888 41.3451429,8.90228571 L43.5628571,9.124 L36.6525714,16.0354286 Z" id="Shape" fill="#1A63AF"></path>
            <path d="M25.5611429,26.7245714 C25.5611429,28.9297143 23.7668571,30.7245714 21.5611429,30.7245714 C19.356,30.7245714 17.5611429,28.9297143 17.5611429,26.7245714 C17.5611429,24.5188571 19.356,22.7245714 21.5611429,22.7245714 C22.1211429,22.7245714 22.6542857,22.8411429 23.1382857,23.0497143 L20.5365714,25.7285714 C19.9868571,26.2948571 20.0005714,27.1988571 20.5662857,27.7485714 C20.8434286,28.0182857 21.2022857,28.1525714 21.5611429,28.1525714 C21.9337143,28.1525714 22.3062857,28.0074286 22.5862857,27.7188571 L25.1857143,25.0417143 C25.424,25.5548571 25.5611429,26.1228571 25.5611429,26.7245714 Z" id="Path" fill="#FFFFFF"></path>
            <path d="M21.5611429,15.296 C22.976,15.296 24.3251429,15.5662857 25.576,16.0382857 L25.576,14.2091429 C24.3102857,13.8028571 22.9617143,13.5817143 21.5611429,13.5817143 C14.3022857,13.5817143 8.41828571,19.4662857 8.41828571,26.724 C8.41828571,33.9817143 14.3022857,39.8674286 21.5611429,39.8674286 C28.8182857,39.8674286 34.704,33.9817143 34.704,26.724 C34.704,25.1114286 34.4114286,23.5668571 33.8805714,22.1394286 L32.0222857,22.1394286 C32.6405714,23.544 32.9897143,25.0931429 32.9897143,26.724 C32.9897143,33.0257143 27.8628571,38.1531429 21.5611429,38.1531429 C15.26,38.1531429 10.1325714,33.0257143 10.1325714,26.724 C10.1325714,20.4222857 15.26,15.296 21.5611429,15.296 Z" id="Shape" fill="#406683"></path>
        </g>
    </g>
</svg>